<?xml version="1.0" encoding="utf-8"?>
<!-- Generator: Adobe Illustrator 16.0.4, SVG Export Plug-In . SVG Version: 6.00 Build 0)  -->
<!DOCTYPE svg PUBLIC "-//W3C//DTD SVG 1.1//EN" "http://www.w3.org/Graphics/SVG/1.1/DTD/svg11.dtd">
<svg version="1.1" id="Layer_1" xmlns="http://www.w3.org/2000/svg" xmlns:xlink="http://www.w3.org/1999/xlink" x="0px" y="0px"
	 width="420px" height="420px" viewBox="0 0 420 420" enable-background="new 0 0 420 420" xml:space="preserve">
<polygon opacity="0.1" enable-background="new    " points="207.769,249.466 39.067,333.547 212.773,417.628 380.88,333.547 "/>
<linearGradient id="SVGID_1_" gradientUnits="userSpaceOnUse" x1="608.9443" y1="513.6094" x2="937.8994" y2="513.6093" gradientTransform="matrix(1 0 0 1 -562 -371)">
	<stop  offset="0" style="stop-color:#E4E4E4"/>
	<stop  offset="1" style="stop-color:#B3B1B3"/>
</linearGradient>
<path fill="url(#SVGID_1_)" d="M46.944,144.004l164.412-84.232l164.544,81.293l-164.421,84.382L46.944,144.004z"/>
<linearGradient id="SVGID_2_" gradientUnits="userSpaceOnUse" x1="101.2881" y1="157.2808" x2="321.6719" y2="157.2808">
	<stop  offset="0" style="stop-color:#FFFFFF"/>
	<stop  offset="1" style="stop-color:#CDCBCA"/>
</linearGradient>
<polygon fill="url(#SVGID_2_)" points="296.633,72.104 271.58,84.631 271.58,77.109 246.539,47.046 221.492,59.574 221.492,52.062 
	196.446,21.999 101.288,69.595 101.288,242.459 201.45,292.562 321.672,232.438 321.672,102.167 "/>
<polygon opacity="0.1" fill="#343433" enable-background="new    " points="196.446,21.999 196.446,21.999 221.492,57.077 
	191.441,72.104 "/>
<linearGradient id="SVGID_3_" gradientUnits="userSpaceOnUse" x1="753.7549" y1="429.2871" x2="773.3597" y2="405.0772" gradientTransform="matrix(1 0 0 1 -562 -371)">
	<stop  offset="0" style="stop-color:#969796"/>
	<stop  offset="1" style="stop-color:#59595C"/>
</linearGradient>
<polygon fill="url(#SVGID_3_)" points="196.446,21.999 221.492,52.062 196.446,62.085 "/>
<polygon opacity="0.1" fill="#343433" enable-background="new    " points="246.539,47.046 246.539,47.046 271.58,82.124 
	241.535,97.161 "/>
<linearGradient id="SVGID_4_" gradientUnits="userSpaceOnUse" x1="803.8447" y1="454.3369" x2="823.4531" y2="430.1224" gradientTransform="matrix(1 0 0 1 -562 -371)">
	<stop  offset="0" style="stop-color:#969796"/>
	<stop  offset="1" style="stop-color:#59595C"/>
</linearGradient>
<polygon fill="url(#SVGID_4_)" points="246.539,47.046 271.58,77.109 246.539,87.139 "/>
<polygon opacity="0.1" fill="#343433" enable-background="new    " points="296.633,72.104 296.633,72.104 321.672,107.171 
	291.609,122.209 "/>
<linearGradient id="SVGID_5_" gradientUnits="userSpaceOnUse" x1="853.9424" y1="479.3887" x2="873.5463" y2="455.1799" gradientTransform="matrix(1 0 0 1 -562 -371)">
	<stop  offset="0" style="stop-color:#969796"/>
	<stop  offset="1" style="stop-color:#59595C"/>
</linearGradient>
<polygon fill="url(#SVGID_5_)" points="296.633,72.104 321.672,102.167 296.633,112.188 "/>
<linearGradient id="SVGID_6_" gradientUnits="userSpaceOnUse" x1="793.167" y1="571.9229" x2="914.2139" y2="677.1472" gradientTransform="matrix(1 0 0 1 -562 -371)">
	<stop  offset="0.3558" style="stop-color:#CDCAC8"/>
	<stop  offset="1" style="stop-color:#969796"/>
</linearGradient>
<polygon fill="url(#SVGID_6_)" points="371.898,143.341 371.898,283.502 211.479,363.725 211.479,223.572 "/>
<linearGradient id="SVGID_7_" gradientUnits="userSpaceOnUse" x1="613.0625" y1="624.5234" x2="773.4688" y2="624.5234" gradientTransform="matrix(1 0 0 1 -562 -371)">
	<stop  offset="0" style="stop-color:#FFFFFF"/>
	<stop  offset="1" style="stop-color:#E4E4E4"/>
</linearGradient>
<polygon fill="url(#SVGID_7_)" points="51.062,143.322 51.062,283.484 211.469,363.725 211.469,223.551 "/>
<g>
	<path fill="#343434" d="M318.274,188.445c0.446-0.218,8.959-4.36,8.992,6.668c0.036,11.036,0.23,71.712,0.268,82.741
		c0.035,11.035-8.478,15.18-8.924,15.396l-35.815,17.436c-0.447,0.217-8.96,4.358-8.995-6.678
		c-0.034-11.027-0.254-79.152-0.265-82.738c-0.036-11.029,8.476-15.171,8.924-15.391L318.274,188.445z M323.02,269.005
		c-0.033-11.036-0.157-49.647-0.192-60.676c-0.02-5.519-4.273-3.446-4.497-3.338l-35.814,17.434
		c-0.227,0.108-4.479,2.181-4.464,7.699c0.009,2.481,0.159,49.64,0.194,60.675c0.02,5.52,4.271,3.447,4.497,3.34l35.814-17.435
		C318.781,276.596,323.037,274.523,323.02,269.005"/>
</g>
<path fill="#343433" d="M375.371,133.856l-45.698-22.001v-9.688c0-1.871-0.655-3.683-1.853-5.12l-25.041-30.063
	c-2.349-2.819-6.44-3.677-9.725-2.035l-14.979,7.491c-0.111-0.154-25.391-30.514-25.391-30.514c-2.349-2.817-6.442-3.68-9.726-2.034
	l-14.979,7.493c-0.106-0.151-25.389-30.505-25.389-30.505c-2.346-2.82-6.442-3.68-9.724-2.035L97.709,62.44
	c-2.71,1.355-4.421,4.125-4.421,7.155v44.285l-45.922,22.969c-2.71,1.355-4.421,4.125-4.421,7.155v140.148
	c0,3.072,1.761,5.875,4.529,7.207l160.535,77.295c2.213,1.067,4.853,1.046,7.05-0.053l160.418-80.224
	c2.71-1.354,4.424-4.125,4.424-7.153V141.064C379.9,137.991,378.138,135.189,375.371,133.856z M319.198,101.541l-21.065,8.431
	V76.249L319.198,101.541z M248.039,51.19l21.068,25.293l-21.068,8.439V51.19z M245.039,49.474v37.666
	c0,1.044,1.089,1.779,2.058,1.393l22.983-9.206v4.378l-69.301,34.653c-0.508,0.254-0.829,0.773-0.829,1.342v8.428l-10.817,5.285
	l-2.473,15.25l13.29-6.491v9.072l-14.897,7.277l-2.447,15.243l17.344-8.471v20.132l-8.87,0.217l1.211-7.536l-11.196,5.467
	l-2.949,18.292l21.804-0.513v14.761l-47.087-23.551V95.58L245.039,49.474z M197.946,26.143l21.073,25.293l-21.073,8.433V26.143z
	 M102.788,70.522l92.158-46.096v37.659c0,1.043,1.089,1.779,2.057,1.393l22.989-9.2v4.37l-69.3,34.664
	c-0.508,0.254-0.829,0.773-0.829,1.341v11.306l-6.452,3.288l0.18,49.902c0.014,3.972-0.77,8.325-4.007,10.981
	c-1.627,1.335-4.015,2.806-6.187,1.981c-1.816-0.689-2.806-2.611-3.743-4.182l-7.386,9.332l-19.481-9.743V70.522z M149.863,173.676
	v17.385l-12.646-6.325C142.35,182.301,146.763,178.438,149.863,173.676z M93.288,122.825v39.94l-39.927-19.97L93.288,122.825z
	 M209.969,360.721L179.21,345.91L52.562,282.558V145.75l157.407,78.728V360.721z M211.495,221.887l-8.545-4.273v-96.987
	l92.183-46.095v37.657c0,1.044,1.089,1.779,2.058,1.393l22.981-9.198v63.151l-26.633,13.32l6.384-59.147l-63.886,28.506
	l2.014,58.393L211.495,221.887z M255.98,177.063l29.146-13.01l-2.401,22.209l-8.075,4.039l1.352-12.492l-27.718,12.368
	l-0.996-28.843l40.056-17.873l-1.126,10.184l-30.574,13.646L255.98,177.063z M256.717,199.27l-7.982,3.992l-0.287-8.316l8.027-3.579
	L256.717,199.27z M370.398,281.975l-157.42,78.723V224.499l157.42-78.73V281.975z M329.673,162.783v-42.048l42.226,20.329
	L329.673,162.783z"/>
</svg>
