<svg width="134.7" height="136" xmlns="http://www.w3.org/2000/svg">
 <style type="text/css">.st0{fill:#FEFEFE;}
	.st1{fill:#D3DBE6;}
	.st2{fill:#5A4815;}
	.st3{fill:#515B6A;}
	.st4{fill:#D2DAE5;}
	.st5{fill:#966B2C;}
	.st6{fill:#C5A798;}
	.st7{fill:#F4D4C5;}
	.st8{fill:#343E4D;}
	.st9{fill:#0D0C09;}
	.st10{fill:#0E0E0B;}
	.st11{fill:#101112;}
	.st12{fill:#0C0B0B;}
	.st13{fill:#100F0E;}
	.st14{fill:#211D1A;}
	.st15{fill:#111110;}
	.st16{fill:#4C5664;}
	.st17{fill:#83726A;}
	.st18{fill:#565D5B;}
	.st19{fill:#383D45;}
	.st20{fill:#141517;}
	.st21{fill:#272114;}
	.st22{fill:#3E3E3D;}
	.st23{fill:#2A2D2D;}
	.st24{fill:#090805;}
	.st25{fill:#7E6626;}
	.st26{fill:#15120E;}
	.st27{fill:#68541C;}
	.st28{fill:#766022;}
	.st29{fill:#161613;}
	.st30{fill:#161511;}
	.st31{fill:#25241C;}
	.st32{fill:#68541D;}
	.st33{fill:#3E3B35;}
	.st34{fill:#2D3540;}
	.st35{fill:#0B0D0F;}
	.st36{fill:#363334;}
	.st37{fill:#1E2228;}
	.st38{fill:#212021;}
	.st39{fill:#0E0D0D;}
	.st40{fill:#121518;}
	.st41{fill:#3A3738;}
	.st42{fill:#0C0907;}
	.st43{fill:#C8AC86;}
	.st44{fill:#29221D;}
	.st45{fill:#16110C;}
	.st46{fill:#705021;}
	.st47{fill:#735832;}
	.st48{fill:#F4D4C4;}
	.st49{fill:#EACBBC;}
	.st50{fill:#1B1715;}
	.st51{fill:#292423;}
	.st52{fill:#F5D5C5;}
	.st53{fill:#181614;}
	.st54{fill:#181616;}
	.st55{fill:#313A47;}
	.st56{fill:#594715;}
	.st57{fill:#69551D;}
	.st58{fill:#F7F0E0;}
	.st59{fill:#DBBEB0;}
	.st60{fill:#B9A195;}
	.st61{fill:#C4A798;}
	.st62{fill:#F0D1C2;}
	.st63{fill:#252220;}
	.st64{fill:#9D887F;}
	.st65{fill:#16130B;}
	.st66{fill:#7E7763;}
	.st67{fill:#BA9E90;}
	.st68{fill:#F5D5C6;}
	.st69{fill:#251F14;}
	.st70{fill:#060502;}
	.st71{fill:#231E17;}
	.st72{fill:#050504;}
	.st73{fill:#845E26;}
	.st74{fill:#221D15;}
	.st75{fill:#463C37;}
	.st76{fill:#211B10;}
	.st77{fill:#2E2824;}
	.st78{fill:#191715;}
	.st79{fill:#272321;}
	.st80{fill:#272322;}
	.st81{fill:#211C1A;}
	.st82{fill:#201B18;}
	.st83{fill:#372E2B;}
	.st84{fill:#080706;}
	.st85{fill:#28221F;}
	.st86{fill:#423833;}
	.st87{fill:#C2A496;}
	.st88{fill:#D7B8A9;}
	.st89{fill:#BFA394;}
	.st90{fill:#BB9F91;}
	.st91{fill:#342D2A;}
	.st92{fill:#181615;}
	.st93{fill:#37302C;}
	.st94{fill:#2C2724;}
	.st95{fill:#5B524E;}
	.st96{fill:#5C4F48;}
	.st97{fill:#27211F;}
	.st98{fill:#201C19;}
	.st99{fill:#3C332F;}
	.st100{fill:#514640;}
	.st101{fill:#423934;}
	.st102{fill:#796960;}
	.st103{fill:#0A0908;}
	.st104{fill:#AE9487;}
	.st105{fill:#A58C80;}
	.st106{fill:#312A27;}
	.st107{fill:#CFCAC8;}
	.st108{fill:#5C4E47;}
	.st109{fill:#F2F2F2;}
	.st110{fill:#4D4644;}
	.st111{fill:#121010;}
	.st112{fill:#0F0D0C;}
	.st113{fill:#3B3532;}
	.st114{fill:#1D1917;}
	.st115{fill:#4E433E;}
	.st116{fill:#221D1B;}
	.st117{fill:#110F0D;}
	.st118{fill:#312A26;}
	.st119{fill:#2C2522;}
	.st120{fill:#13100F;}
	.st121{fill:#0C0A0A;}
	.st122{fill:#483D37;}
	.st123{fill:#F9F6F5;}
	.st124{fill:#988E8A;}</style>

 <g>
  <title>background</title>
  <rect fill="none" id="canvas_background" height="402" width="582" y="-1" x="-1"/>
 </g>
 <g>
  <title>Layer 1</title>
  <path id="svg_1" d="m66.9,0c21.5,0 43,0.1 64.4,-0.1c2.7,0 3.4,0.4 3.4,3.3c-0.1,43.3 -0.1,86.6 0,129.9c0,2.7 -0.9,3 -3.2,3c-43.2,-0.1 -86.5,-0.1 -129.8,0c-2.4,0 -3.1,-0.4 -3.1,-3c0.1,-43.3 0.1,-86.6 0,-129.9c0,-2.9 0.8,-3.2 3.4,-3.2c21.6,0.1 43.3,0 64.9,0z" class="st0"/>
  <path id="svg_2" d="m6.4,67.8c0,-18 0,-36 0,-54c0,-3.1 1.4,-5.1 4,-6.4c4,-2 8.1,-3.7 12.8,-3.8c28.5,-0.4 57,-0.9 85.4,-1.2c4.4,-0.1 8.6,1.3 12.6,2.8c4.9,1.9 5,7.1 5.3,11.5c1.9,23.4 1.4,46.9 2.2,70.4c0.3,7.8 0.1,15.7 0.7,23.5c0.3,4.9 -1.4,9.5 -1.9,14.3c-0.4,3.6 -5.4,6.7 -10,6.8c-8.7,0.2 -17.3,0.2 -26,0.3c-21.3,0.3 -42.6,0.4 -64,0.9c-4.3,0.1 -8.5,-0.8 -12.9,-0.6c-4.8,0.3 -9,-4.6 -9.2,-10c-0.3,-5.8 0,-11.6 0,-17.5c0,-12.3 0,-24.7 0,-37c0.3,0 0.7,0 1,0z"/>
  <path id="svg_3" d="m15.8,122.7c-0.4,-1.3 -0.8,-2.5 -0.8,-3.9c0.4,-32.9 0.8,-65.8 1.1,-98.8c0,-3.1 0.5,-5.6 3.5,-7c1.3,-0.7 2.7,-0.9 4,0.1c0.7,0 1.3,0 2,0c5.4,-1.3 10.8,-0.3 16.2,-0.5c2,-0.1 2.1,1.1 1.4,2.6c-0.4,0.8 -0.9,1.4 -1.4,2c-8.6,10.2 -9.7,22.5 -9.7,35c0,5 3.4,8 7.3,10.6c1.3,0.8 2.9,1 4.3,1.7c1.2,0.7 1.8,1.8 2.2,3.1c0.6,2.2 1.7,4.3 0.9,6.7c-4.6,1.9 -4.8,6.3 -5.7,10.2c-0.5,0.9 -1.1,1.7 -1.9,2.3c-9.6,7.5 -11.7,18.4 -13.3,29.5c-0.2,1.1 -0.5,2.3 -0.4,3.4c0.1,3 -1.1,4.3 -4.1,3.8c-1.9,-0.3 -3.9,0.8 -5.6,-0.8z" class="st1"/>
  <path id="svg_4" d="m47.8,13.1c1.6,-0.1 3.3,-0.1 4.9,-0.2c15,-0.8 29.9,-0.1 44.9,-0.4c2.4,0 3.3,1.4 3.8,3.2c2.1,7.7 4.5,15.2 8.4,22.3c2.5,4.5 -0.2,9 -1.8,13.4c-0.8,1.7 -1.5,3.4 -2,5.3c-1.6,4.5 -0.9,9 -0.7,13.6c-0.2,0.5 -0.4,0.8 -0.8,1.1c-1.4,0.9 -3,-0.9 -4.3,0.4c-1,1.8 -2.1,3.4 -4.2,1.1c-1.9,-1.5 -3.5,1.1 -5.4,0.4c-0.6,-0.3 -1.2,-0.7 -1.4,-1.3c-1.1,-3.3 3.8,-13.9 6.9,-15.3c7.1,-3 8.1,-7.7 3.1,-13.5c-0.7,-0.6 -1.5,-1.2 -2.3,-1.7c-2.6,-1.8 -5.8,-1.2 -8.6,-2c-3.7,-1 -7.4,-2 -9.9,-5.2c0.4,-1.6 -1,-2.2 -1.7,-3.2c-1.9,-3.2 -4.4,-6 -5.5,-9.6c-0.8,-1.9 -1,-4.2 -2.8,-5.6c-4.9,-0.7 -9.8,-0.1 -14.7,-0.3c-2,-0.1 -4,0.1 -5.8,-0.9c-0.4,-0.6 -0.5,-1.1 -0.1,-1.6z" class="st2"/>
  <path id="svg_5" d="m59.6,96.1c-0.3,7.2 1.5,14.2 2.4,21.2c0.6,4.4 0,5.4 -4.4,5.5c-9.3,0.1 -18.6,0.2 -27.9,0.2c-3,1.3 -4.3,-0.4 -4.1,-2.9c0.7,-8.8 2.5,-17.4 6.5,-25.4c1.2,-2.3 3.1,-4.3 5.8,-5.2c2.9,-0.1 2.7,2.4 3.3,4.1c2.1,5.4 5.2,9.6 11.5,10.2c0.4,0 0.7,0.5 1.1,0.2c-0.4,-0.2 -0.7,-0.5 -1.1,-0.9c-3.8,-3.6 -6.9,-7.7 -9.1,-12.4c-0.2,-0.7 -0.5,-1.5 -0.5,-2.2c0,-0.2 0.2,-0.6 -0.2,-0.6c-0.2,0 -0.4,0.4 -0.7,0.5c-0.7,0.1 -1.3,0 -1.8,-0.6c-0.4,-2 1.6,-3.3 1.3,-5.3c0.5,-3.7 1.8,-6.7 6.4,-6.3c0.9,0.9 1.4,2 1.8,3.1c0.5,1.5 0.8,3 1,4.5c0.1,0.6 0.2,1.2 0.4,1.7c0.3,0.7 0.7,1.3 1.3,1.8c0.9,0.5 1.9,0.7 2.7,1.4c1.6,1 0.4,3 1.4,4.2l0,0c0.4,0.3 0.7,0.6 1,1.1l0,0c0.4,0.2 0.7,0.6 1.1,0.9l0,0c0.2,0.5 0.5,0.8 0.8,1.2z" class="st3"/>
  <path id="svg_6" d="m111,12.1c6.4,1 7.2,-0.1 6.4,8.5c-0.3,3.5 0,6.9 0.3,10.4c0.9,9.3 0.3,18.7 0.3,28c0,4.3 -2.9,1.3 -4.6,1.4c-2.3,-1.4 -5.3,-0.1 -7.4,-2.1c-0.8,-2.1 0,-3.8 0.9,-5.6c2,-2.6 2.9,-5.6 3.8,-8.6c1.1,-3.8 0.8,-7.7 -2.2,-10.7c-5,-5.1 -5.2,-12 -7.4,-18.2c-0.6,-1.8 0.3,-2.7 2.3,-2.8c2.6,0 5.2,0.5 7.6,-0.3z" class="st4"/>
  <path id="svg_7" d="m65.7,116.9c-0.1,-3.1 -0.6,-6.1 -2.1,-8.9c-0.5,-5.9 -1.9,-11.7 -1.4,-17.6c6.3,0.4 12.7,-0.8 18.9,1.5c2.2,2.5 -0.9,4 -1.1,6c-0.5,2.1 0.4,3.8 1.9,5.3c0.4,0.5 0.8,1 1,1.7c0.2,1 -0.2,1.7 -0.8,2.4c-0.5,0.4 -1,0.7 -1.6,1c-0.4,0.2 -0.7,0.4 -1.1,0.5c-0.5,0.3 -1.1,0.5 -1.6,0.7c-0.4,0.2 -0.7,0.3 -1.1,0.4c-0.6,0.2 -1.1,0.4 -1.6,0.6c-0.4,0.2 -0.7,0.4 -1.1,0.6c-1.1,0.7 -2,1.5 -2.6,2.7c-1.4,2.8 1.4,5.1 0.7,7.8c-0.3,0.5 -0.7,0.7 -1.2,0.8c-5.2,1.4 -4.6,-2.5 -5.2,-5.5z" class="st5"/>
  <path id="svg_8" d="m118.7,118c0.2,1.8 1,3.9 -2,4.2c-5.1,0.7 -10.2,0.1 -15.3,0.3c-1.1,-0.1 -2.6,0 -1.3,-1.7c0.8,-1.2 2.4,-1.4 3.5,-2.3c0.1,-0.3 0.2,-0.7 0.1,-1c-0.2,-0.3 -0.5,-0.6 -0.8,-0.8c-5.9,-1 -11.5,0 -16.8,2.5c-2.9,0.6 -5.7,0.6 -8.3,-1c-0.3,-2.7 1.9,-3.2 3.7,-3.8c4.2,-1.6 8.4,-2.6 12.9,-2.7c3.3,-0.1 6.6,-0.7 8.2,-4.2c0.3,-0.4 0.6,-0.8 0.9,-1.1c0.3,-0.3 0.7,-0.6 1.1,-0.9c1.2,-0.7 2.3,-1.4 1.4,-3c-0.3,-0.3 -0.6,-0.6 -0.9,-0.8c-0.7,-0.5 -1.5,-0.9 -2.2,-1.4c-3.3,-2.4 -6.6,-1.5 -9.9,-0.2c-2,0.8 -4,2.8 -6.5,1.1c0.7,-4.3 4.6,-7.3 10,-7.4c5,-0.1 9.9,0.9 14.7,2.1c3.4,0.9 4.5,2.8 2.9,5.9c-1.1,2.2 -1.1,4 0.1,6.1c1.1,2.1 1.5,4.4 1,6.8c-1.3,4.7 -1.3,4.7 3.5,3.3z" class="st6"/>
  <path id="svg_9" d="m118.7,118c-0.3,0.5 -0.7,1.1 -1,1.6c-1.2,2.3 -3.2,1.7 -4.7,0.8c-1.7,-0.9 -1.9,-2.7 -0.5,-4.2c2.9,-3.1 1.8,-6.2 -0.2,-8.9c-1.6,-2.1 -1.8,-3.5 0,-5.6c2.5,-3.1 1.9,-3.7 -2.2,-4.9c-4.3,-1.2 -8.7,-1.9 -13.2,-2c-4.2,-0.1 -8.2,2 -10.2,6c-1.6,2.9 -3.3,1.7 -5.1,0.2c-0.6,-1.1 -0.1,-2.1 0.2,-3.2c0.1,-0.4 0.3,-0.8 0.5,-1.1c0.2,-0.3 0.5,-0.7 0.7,-0.9c0.1,-0.1 0.3,-0.3 0.4,-0.4c0.3,-0.3 0.5,-0.6 0.8,-0.9c0.1,-0.2 0.3,-0.3 0.4,-0.4c0.3,-0.3 0.6,-0.6 0.9,-0.9c0.3,-0.3 0.6,-0.6 0.9,-0.9c0.2,-0.2 0.3,-0.3 0.5,-0.5c0.6,-0.5 1.2,-0.9 1.8,-1.3c3.6,-2.1 7.5,-2.2 11.5,-1.3c4,0.9 7.9,2.3 12.1,2.6c2.4,0.2 3.7,1.9 5,3.6c2.3,3 1.5,6.6 2.2,10c-0.8,4.2 0.7,8.5 -0.8,12.6z" class="st7"/>
  <path id="svg_10" d="m117.7,66.9c2,2.5 0.4,5.4 1,8.1c1,4.6 0.2,9.2 0.4,13.8c0,0.8 0.1,1.8 -0.8,2.1c-0.6,0.2 -1.3,-0.3 -1.7,-0.9c-2.6,-4.6 -7.2,-6.5 -11.6,-8.7c-0.6,-1.4 -1.1,-3 -2.8,-3.7c-0.8,-0.5 -1.6,-1 -2.1,-1.8c-0.3,-0.6 -0.5,-1.3 -0.4,-2.1c0.3,-1.7 1.1,-2.7 3,-2.1c3.5,1.1 3.7,-0.6 2.7,-3.2c-0.4,-1.1 -0.9,-2.1 -0.4,-3.3c1.5,-2.5 3.4,-1.9 5.5,-1c2.5,1 4.3,3.3 7.2,2.8z" class="st8"/>
  <path id="svg_11" d="m47.8,13.1c0,0.3 -0.1,0.6 0,1c0.3,3 -2.3,4.1 -3.9,5.8c-1.3,1.5 -2.7,2.9 -3.6,4.6c-1.5,2.2 -2.2,4.7 -2.8,7.2c-1.5,5.3 -2.2,10.7 -2.5,16.1c-0.3,4.8 0.7,9.1 4.6,12.4c0.9,0.7 1.6,1.7 1.5,3c-0.3,0.9 -0.7,1.5 -1.8,1c-5.9,-3 -8.7,-7.5 -8.6,-14.4c0.2,-7.6 1.5,-14.8 3.4,-22.1c1.2,-4.7 3.9,-8.4 7.3,-11.7c0.7,-0.6 1.9,-1.3 1.4,-2.3c-0.5,-0.9 -1.8,-0.4 -2.7,-0.4c-4.8,-0.2 -9.6,0.4 -14.4,-0.2c1,-1.5 2.7,-1.2 4.1,-1c5.9,0.4 12.1,-1.3 18,1z" class="st9"/>
  <path id="svg_12" d="m111,12.1c-0.8,0.2 -1.6,0.4 -2.4,0.4c-7,0.3 -7,0.3 -4.9,7.3c1.5,5 2.7,10 7,13.8c3.2,2.9 2.7,7.3 1.4,11.2c-1,2.9 -1.8,6.1 -4.4,8.1c-0.9,0.2 -1.3,0 -1,-1c0.7,-2.2 1.3,-4.5 2.2,-6.6c1.3,-3.1 1,-6.2 -0.8,-8.5c-4.4,-5.6 -5.5,-12.4 -7.1,-18.9c-1,-3.9 -2.6,-5.2 -6.7,-5.1c-13.8,0.3 -27.6,0 -41.4,0c0.6,-0.7 1.4,-0.9 2.2,-0.9c18.5,0.1 37.2,0.2 55.9,0.2z" class="st10"/>
  <path id="svg_13" d="m42.6,83c0.7,2.2 -1.3,3.4 -2.1,5c-0.2,1.1 -1,1.6 -1.9,1.9c-8.2,5.7 -8.8,14.9 -10.9,23.4c-0.5,2.1 -0.6,4.2 -1,6.3c-0.4,2.4 0.7,3.3 3,3.3c-4.7,1.3 -9.3,2.2 -13.9,-0.3c1.3,0.2 2.6,0.7 3.9,0.6c2.8,0 4.5,-0.6 4.6,-4.4c0.2,-8 2.5,-15.8 5.6,-23.2c2,-4.9 6.9,-7.9 10.4,-11.9c0.8,0 1.2,-1.3 2.3,-0.7z" class="st11"/>
  <path id="svg_14" d="m105.6,80c0.1,0.6 0.3,1.6 0.9,1.6c5.4,-0.5 7.9,3.3 10.4,7c0.3,0.5 0.9,1.4 1.2,1.3c1.1,-0.3 0.5,-1.3 0.5,-2c0.1,-4.3 0.1,-8.6 0.1,-12.9c0.9,0.7 1,1.7 0.9,2.7c0,9.2 -0.1,18.5 -0.1,27.7c-0.6,-3.1 -0.6,-6.5 -3,-9c-0.7,-1.8 -1.3,-3.7 -3.2,-4.7c-0.5,-0.4 -1,-0.9 -1.5,-1.4c-2,-2.6 -4.5,-3.7 -7.7,-2.9c-1.5,-0.8 -1.6,-2.3 -1.6,-3.8c0,-0.7 0.1,-1.5 0.4,-2.1c0.3,-0.7 0.7,-1.2 1.4,-1.6c0.4,-0.3 0.9,-0.2 1.3,0.1z" class="st12"/>
  <path id="svg_15" d="m62.7,90.1c0.3,6 0.6,12 0.9,17.9c-1.4,-4.1 -2,-8.2 -2,-12.5c0,-2.2 0.1,-4.3 -0.1,-6.5c-0.1,-1.2 0.7,-3.3 -1,-3.3c-1.5,0 -0.7,2.2 -1,3.4c-0.6,0.5 -0.9,1.2 -1.4,1.7c-0.2,0.1 -0.3,0.1 -0.5,0.2c-0.8,0.4 -0.9,1.2 -1,2c-1.4,-1 -1.1,-2.8 -2,-4c-0.3,-0.4 -0.3,-0.9 0,-1.3c1.5,-1.1 2.7,-2.3 2.9,-4.3c0.3,-3 2,-5.1 4.9,-6.3c0.5,-0.2 1,-0.3 1.5,-0.3c1.5,0 3.1,0 4,1.7c-3.5,2.3 -4.9,5.6 -4.1,9.7c-0.2,0.7 -0.5,1.3 -1.1,1.9z" class="st13"/>
  <path id="svg_16" d="m77.6,117.9c2.7,0.1 5.3,0.9 8,0.2c1,0.5 2.6,-0.3 3.2,1.3c-1.6,2.7 -4.5,1.8 -6.8,2.5c-0.7,0 -1.5,0 -2.2,0c-1.7,0 -3.4,0.1 -5.1,-0.1c-0.3,0.1 -0.7,0.2 -1,0.2c-0.2,0 -0.4,-0.1 -0.6,-0.1c-0.6,-0.2 -1.1,-0.6 -1.4,-1.1c-1.4,-2.5 -3.6,-4.9 -1.1,-7.9c0.9,0.4 1.4,1.1 2,1.8c1.1,2 3.5,1.8 5,3.2z" class="st14"/>
  <path id="svg_17" d="m105.8,64.9c-0.4,1.9 0.6,3.5 1.3,5.2c0.5,1.1 1,2.2 0,3.2c-0.9,0.9 -1.8,-0.2 -2.8,-0.2c-1.3,0 -3.2,-2.3 -3.8,0.8c-2.3,-0.4 -1.3,-1.8 -1,-3.1c1.5,-3.9 2.7,0.3 4.1,0.1c0.4,0.3 0.7,0.8 1.1,0c-1.5,-5 -1.4,-9.9 0,-14.9c1.5,-0.4 1.3,0.7 1.4,1.5c-0.1,0.9 0.4,1.7 0.5,2.6c0.3,0.6 0.7,1.2 1,1.8c-0.4,1.1 -1.4,1.9 -1.8,3z" class="st15"/>
  <path id="svg_18" d="m112.8,59.8c0.5,0.1 1,0.1 1.4,0.3c3.7,2 3.9,0 3.8,-3c-0.2,-8.7 -0.2,-17.4 -0.3,-26.1c1.2,1 0.9,2.4 0.9,3.7c0.1,8.1 0,16.1 0.2,24.2c0.1,3.4 -0.7,4.8 -4.1,2.7c-1.3,-0.8 -3,-0.1 -4.1,-1.4c0.7,-0.8 1.4,-0.7 2.2,-0.4z" class="st15"/>
  <path id="svg_19" d="m99.7,121.8c5.7,0.1 11.3,0.3 17,0.4c-0.6,0.6 -1.4,0.8 -2.3,0.8c-12,0 -23.9,-0.1 -35.9,-0.1c0,-1.1 0.8,-1.3 1.7,-1.4c0.9,0 1.7,0 2.6,0c5.6,-0.4 11.3,-2.4 16.9,0.3z" class="st14"/>
  <path id="svg_20" d="m105.8,64.9c-0.3,-1.6 -0.2,-2.8 1.9,-2.9c0.3,0.1 0.6,0.1 0.9,0.1c0.9,0.8 2.3,0 3.1,1c2,1.3 4,2.6 6.1,3.9c-0.4,2.8 -1.5,1.4 -3,0.8c-2.9,-1.3 -5.2,-4.5 -9,-2.9z" class="st16"/>
  <path id="svg_21" d="m65.7,116.9c1,2.8 1.1,6.7 5.9,5.1c0.6,-0.6 1.2,-0.5 1.9,-0.1l0.2,0.2c-1.8,1.6 -4.1,1.1 -6,0.8c-3.7,-0.7 -1.5,-3.9 -2,-6z" class="st14"/>
  <path id="svg_22" d="m79.6,122.1c-0.4,0.3 -0.8,0.5 -1.1,0.8c-0.9,0 -1.7,0 -2.6,0c-0.5,-0.1 -0.9,-0.5 -1.1,-1l0.1,0c1.5,-1.3 3.2,-0.7 4.9,-0.7c0.3,0.2 0.4,0.4 0.2,0.6c-0.1,0.2 -0.3,0.3 -0.4,0.3z" class="st17"/>
  <path id="svg_23" d="m112.8,59.8c-0.7,0.1 -1.5,0.2 -2.2,0.3c-1.3,0 -2.6,0 -3.9,0c-0.9,-0.4 -1,-1.3 -1,-2.2c0.2,-0.4 0.5,-0.4 0.8,-0.1c1.6,2.4 4.6,0.1 6.3,2z" class="st18"/>
  <path id="svg_24" d="m23.7,13.1c-1.3,0.5 -2.7,0.3 -4,-0.1c1.3,-1.5 2.7,-1.5 4,0.1z" class="st9"/>
  <path id="svg_25" d="m59.6,89.9c-0.1,0.8 0.1,2 -0.3,2.2c-0.8,0.5 -1.3,-0.5 -1.7,-1.1l0.1,-0.1c0.5,-0.5 0.8,-1.5 1.9,-1z" class="st13"/>
  <path id="svg_26" d="m59.6,89.9c-0.6,0.3 -1.3,0.7 -1.9,1c0,-1.3 0.5,-2 1.9,-1.8c0,0.3 0,0.6 0,0.8z" class="st19"/>
  <path id="svg_27" d="m111.6,63.1c-1.1,-0.1 -2.3,0 -3.1,-1c1.2,-0.1 2.5,-0.4 3.1,1z" class="st15"/>
  <path id="svg_28" d="m58.7,95c-0.4,-0.3 -0.7,-0.6 -1.1,-0.9c0.3,0.3 0.7,0.6 1.1,0.9z" class="st13"/>
  <path id="svg_29" d="m59.6,96.1c-0.3,-0.4 -0.6,-0.7 -0.9,-1.1c0.3,0.4 0.6,0.7 0.9,1.1z" class="st13"/>
  <path id="svg_30" d="m74.7,121.9c0.4,0.3 0.8,0.6 1.1,1c-0.5,-0.1 -0.9,-0.4 -1.1,-1z" class="st14"/>
  <path id="svg_31" d="m57.6,94.1c-0.3,-0.4 -0.6,-0.7 -1,-1.1c0.4,0.4 0.7,0.7 1,1.1z" class="st13"/>
  <path id="svg_32" d="m42.6,83c-0.8,0.3 -1.5,0.6 -2.3,0.9c0.2,-7.1 1,-8.5 6,-10.1c0.7,-0.5 1.4,-0.5 2.2,-0.2c0.7,0.5 0.9,1.2 0.8,2.1c-0.2,0.8 -0.6,1.4 -1.6,1.3c-3.3,0.8 -4.1,1.8 -5.1,6z" class="st20"/>
  <path id="svg_33" d="m44.9,67.9c-0.4,-1 -0.8,-1.9 -1.2,-2.9c-0.3,-0.3 -0.6,-0.6 -0.9,-0.9c-0.4,-0.5 -0.7,-1.1 -0.8,-1.7c-0.1,-0.7 0,-1.3 0.3,-2c0.5,-0.8 0.9,-1.8 2.1,-1.6c2.1,1.9 2.2,4.4 2.3,7c-0.2,1 -0.3,2.2 -1.8,2.1z" class="st21"/>
  <path id="svg_34" d="m44.9,67.9c0.7,-0.5 0.7,-1.3 0.8,-2c3.3,1.9 3.5,4.9 2.7,8.2c-0.7,-0.1 -1.4,-0.2 -2.1,-0.2c-0.4,-2.1 -0.9,-4 -1.4,-6z" class="st22"/>
  <path id="svg_35" d="m43.6,63.9c0,0.4 0.1,0.8 0.1,1.1c-1.4,-0.2 -3.1,0.6 -4.3,-0.8c0.5,-0.4 0.9,-0.8 1.4,-1.2c0.8,-0.6 1.3,0.1 1.9,0.5c0.3,0 0.6,0.2 0.9,0.4z" class="st23"/>
  <path id="svg_36" d="m99.8,41.9c4.1,2.2 4.5,5.9 3.8,9.8c-0.7,3.6 -3.5,5.4 -6.9,6.3c-0.3,0.1 -0.7,0.1 -1,0.1c-2.2,0.1 -2.4,2 -2.1,3.2c0.9,4.2 -6.5,7 -1.9,11.7c0.3,-0.3 0.7,-0.4 1.1,-0.2c0.3,0.6 0.2,1.2 0,1.8c0.3,1.9 1.9,0.9 2.9,1.4c1,0.3 2.1,0.4 2.2,1.8c-2.8,2.9 -6.4,1.2 -9.6,1.7c-1.9,0.1 -3.7,0 -5.6,-0.1c-1.5,-0.1 -2.9,-0.1 -4.3,-0.7c-0.4,-0.2 -0.7,-0.6 -0.9,-1c-0.1,-0.4 0,-0.8 0.2,-1.2c0.1,-0.2 0.2,-0.3 0.3,-0.5c0.2,-0.3 0.5,-0.6 0.8,-0.9c0.1,-0.1 0.3,-0.3 0.4,-0.4c0.3,-0.3 0.5,-0.5 0.8,-0.8c0.1,-0.1 0.3,-0.3 0.4,-0.4c0.3,-0.3 0.5,-0.5 0.8,-0.8c0.1,-0.1 0.3,-0.3 0.4,-0.4c0.3,-0.3 0.6,-0.5 0.9,-0.8c0.3,-0.3 0.6,-0.5 1,-0.7c1.5,-0.9 2.1,-2.5 2.8,-4c2.3,-3 5,-5.7 3.9,-10.1c-0.5,-2.1 1.2,-3.1 3.1,-3.8c6.4,-2.3 6.4,-2.6 2.7,-8.3c-0.5,-0.7 -0.8,-1.4 -0.5,-2.3c1.2,-1.5 2.8,-0.9 4.3,-0.4z" class="st24"/>
  <path id="svg_37" d="m39.4,23.9c1.8,-4.2 5.9,-6.3 8.4,-9.9c6.3,0 12.5,0 18.8,0c1.4,0 3,-0.5 4.1,0.9c-1.8,2.3 -3,5.2 -5.8,6.6c-1.1,0.5 -2.2,0.8 -3.3,1.1c-0.9,0.2 -1.8,0.2 -2.8,0c-2.5,-0.3 -4.7,-2.1 -7.4,-1.4c-0.2,0.3 -0.5,0.7 -0.7,1c-0.3,0.3 -0.6,0.5 -1,0.7c-1.1,0.6 -2.3,1.2 -3.4,1.8c-1.3,0.6 -2.6,1.2 -4.1,1.1c-1.2,0 -2.4,-0.5 -2.8,-1.9z" class="st25"/>
  <path id="svg_38" d="m61.5,21.9c0.8,-1 2,-0.8 3.1,-1c3.1,-1.4 6.1,-2.7 7.3,2.2c1.4,2 2.3,4.4 4,6.2c0.3,0.3 0.6,0.7 0.8,1.1c0.1,0.2 0.2,0.4 0.3,0.6c0.5,0.7 1.3,1.2 1.4,2.1c4.2,4.3 9.8,5.2 15.4,5.9c1.5,0.2 3.6,-0.6 3.7,2.1c-1,0.7 -2.4,0.5 -3.4,1.4c-0.4,0.2 -0.8,0.3 -1.2,0.4c-1,0.2 -2.1,0.2 -3.2,0.1c-0.4,-0.1 -0.8,-0.2 -1.2,-0.3c-1,-0.4 -1.9,-0.6 -3,-0.7c-0.4,-0.1 -0.8,-0.2 -1.2,-0.3c-0.8,-0.3 -1.6,-0.6 -2.4,-0.8c-1.1,-0.4 -2.1,-0.8 -3.1,-1.4c-5.7,-3.5 -9.6,-8.6 -11.5,-14.8c-0.9,-2.8 -2.1,-0.3 -2.9,-1c-0.9,-0.3 -2.1,-0.6 -2.9,-1.8z" class="st26"/>
  <path id="svg_39" d="m71.7,24c-1.1,-3.9 -3.9,-3.7 -7,-3.1c2.1,-1.8 2.7,-5.2 6,-5.9c0.7,2 1.3,4 2,6c-1,0.8 0,2.2 -1,3z" class="st27"/>
  <path id="svg_40" d="m71.7,24c0.1,-1.1 -0.3,-2.3 1,-3c0.4,4 4.3,6.2 5,10c-0.3,0.4 -0.7,0.4 -1.1,0l0,0c-0.2,-0.4 -0.7,-0.7 -1,-1c-2.2,-1.4 -2.8,-3.9 -3.9,-6z" class="st28"/>
  <path id="svg_41" d="m99.6,70.9c0.1,1.1 -0.2,2.3 1,3.1c0,0.7 0,1.3 0,2c-2.7,1.4 -4.1,0.2 -4.6,-2.5c0.1,-0.6 0.3,-1.1 0.7,-1.5c2.1,2.8 1.9,-0.8 2.9,-1.1z" class="st29"/>
  <path id="svg_42" d="m96.7,72c0,0.4 0,0.8 -0.1,1.2c-1.4,1.8 -2.7,2 -3.9,-0.1c-0.4,0 -0.7,0 -1.1,-0.1c1.7,-0.4 2.6,-4.6 5.1,-1z" class="st30"/>
  <path id="svg_43" d="m106.5,57.9c-0.3,0 -0.5,0 -0.8,0.1c0,-0.8 -0.1,-1.5 -0.9,-1.9c0.7,-1.3 0.6,-3 1.8,-4.1c0.3,0.3 0.7,0.7 1,1c-0.4,1.6 -0.8,3.3 -1.1,4.9z" class="st31"/>
  <path id="svg_44" d="m93.8,42.2c0.9,-1.8 2.5,-0.9 3.9,-1.1c0.9,0 1.6,0.1 2.1,0.9c-1.4,0.3 -3,-0.4 -4.1,1c-1,0.6 -1.5,-0.1 -1.9,-0.8z" class="st26"/>
  <path id="svg_45" d="m76.6,31c0.4,0 0.7,0 1.1,0c0.8,0.5 2.2,0.7 0.9,2.1c-0.9,-0.5 -1.6,-1.1 -2,-2.1z" class="st32"/>
  <path id="svg_46" d="m104.8,71c0.1,0.2 0.2,0.5 0.3,0.7c-0.7,0.3 -1.1,-0.1 -1.4,-0.7c0.4,0 0.7,0 1.1,0z" class="st33"/>
  <path id="svg_47" d="m38.6,89.9c0.3,-0.9 1,-1.6 1.9,-1.9c0.7,0 1.4,0 2.2,0c0.8,0.9 0.9,2 1.4,3.1c2.1,5.1 5.3,9.4 9.7,12.8c0.3,0.4 0.3,0.8 -0.1,1.2c-6.7,0 -12.6,-5.1 -14,-12c-0.2,-1.2 0.1,-2.4 -1.1,-3.2z" class="st34"/>
  <path id="svg_48" d="m53.6,104.1c-5.6,-2.6 -8.5,-7.3 -10,-13.1c-0.5,-1 0,-1.1 0.8,-0.9c2.2,4.9 5.8,8.8 9.2,12.8c0.6,0.5 0.5,0.9 0,1.2z" class="st35"/>
  <path id="svg_49" d="m51.6,88.1c-0.7,-0.4 -1,-1.1 -1,-1.9c-0.2,-0.5 -0.5,-0.8 -0.8,-1.2c0,-1.8 -0.2,-3.5 -1,-5.1c0.7,-0.6 0.1,-2 1.4,-2.2c1.6,0.6 1.5,2.1 1.7,3.5c0.1,0.9 0.2,1.7 0.5,2.6c0.2,0.6 0.3,1.3 0.3,1.9c0,0.4 -0.1,0.9 -0.2,1.3c-0.2,0.5 -0.5,0.8 -0.9,1.1z" class="st36"/>
  <path id="svg_50" d="m44.5,90.1c-0.3,0.3 -0.6,0.6 -0.8,0.9c-1.2,-0.7 -0.9,-1.9 -1,-3c1.9,-0.4 1.2,1.4 1.8,2.1z" class="st37"/>
  <path id="svg_51" d="m49.7,77.9c-0.1,0.8 -0.1,1.6 -1,2c-0.3,-1 -0.6,-2 -1,-3c0.4,-0.4 0.7,-0.9 1.1,-1.3c1.3,0.5 1.6,1.2 0.9,2.3z" class="st38"/>
  <path id="svg_52" d="m51.6,88.1c0.1,-0.3 0.1,-0.6 0.1,-0.9c0.3,-0.4 0.6,-0.6 1.1,-0.6c1,0.1 1.7,0.6 1.9,1.6c0,0.3 0,0.6 0,1c-1.2,-0.1 -2.4,0.1 -3.1,-1.1z" class="st39"/>
  <path id="svg_53" d="m53.6,104.1c0,-0.4 0,-0.8 0.1,-1.2c0.7,0.3 1.5,0.7 1.5,1.5c0,0.6 -0.9,0.5 -1.5,0.5c-0.1,-0.2 -0.1,-0.5 -0.1,-0.8z" class="st40"/>
  <path id="svg_54" d="m49.7,85c0.3,0.4 0.6,0.8 0.8,1.2c-0.2,-0.4 -0.5,-0.8 -0.8,-1.2z" class="st41"/>
  <path id="svg_55" d="m81.9,99.9c1.2,2.3 2.9,2.1 4.8,1c2.5,0.1 4.1,-2 6.3,-2.6c3.8,-1.1 7.7,-2.7 10.8,1.5c0.5,0.9 1.5,0.7 2.2,1c0.3,0 0.5,0 0.7,0.3c1.8,2.6 -0.3,3.7 -1.9,5l-0.1,-0.1c-2.7,2 -6,0.9 -9,1.7c-0.5,0.1 -0.9,0.2 -1.4,0.3c-1.8,0.3 -3.6,0.1 -5.3,0.4c-0.4,0.1 -0.8,0.2 -1.2,0.3c-0.9,0.2 -1.9,0.4 -2.8,0.8c-0.3,0.1 -0.7,0.3 -1.1,0.4c-0.7,0.2 -1.4,0.4 -2.1,0.7c-0.3,0.1 -0.7,0.2 -1,0.3c-0.7,0.2 -1.4,0.4 -2.1,0.7c-0.3,0.1 -0.7,0.3 -1.1,0.4c-0.6,0.2 -1.1,0.3 -1.7,0.5c-0.4,0.1 -0.8,0.2 -1.2,0.1c-2.1,-0.8 -1.4,-1.6 -0.1,-2.5l0,0c0.5,-0.6 1.4,-0.4 1.9,-0.9c0.2,-0.2 0.5,-0.2 0.8,-0.2c0.7,-0.4 1.6,-0.2 2.2,-0.9l0,0c0.8,-0.7 2.1,-0.2 2.8,-1.2c0.3,-0.3 0.7,-0.5 1.1,-0.7c0.8,-0.3 1.6,-0.6 2.4,-0.9c0.6,-0.2 1.3,-0.2 2,-0.2c1.2,0 2.2,-0.2 3.3,-0.7c1.1,-0.3 2.2,-0.6 3.4,-0.6c1.6,-0.3 3.3,0.6 4.7,-0.7c-2.3,-1.6 -4.2,-0.3 -6.3,0.5c-1.7,0.6 -3.3,1.5 -5.1,1.4c-2.1,0.1 -4.3,0.3 -6.2,-0.9c-2.4,-1.4 -3.2,-3.4 -2.8,-6.1c1.6,-2.3 2.3,-0.9 3.1,0.7c0.2,0.4 0.2,0.8 0,1.2z" class="st42"/>
  <path id="svg_56" d="m62.7,90.1c0,-0.7 0,-1.4 0,-2.1c7.6,-1.3 15.2,-0.5 22.8,0.1c1.1,0.4 1.7,1.1 1.2,2.3c-0.3,0.6 -0.7,1.2 -1.2,1.6c-0.3,0.3 -0.7,0.5 -1,0.7c-0.5,0.3 -1.1,0.5 -1.6,0.7c-0.4,0.1 -0.7,0.1 -1.1,-0.1c-4,-2.3 -8.4,-0.9 -12.7,-1.2c-2.3,-0.2 -4.6,-0.3 -6.4,-2z" class="st43"/>
  <path id="svg_57" d="m81.8,93.2c0.3,-0.1 0.6,-0.2 0.9,-0.3c0.4,-0.3 0.8,-0.3 1.2,-0.1c0.4,0.2 0.7,0.5 1,0.8c0.1,0.2 0.1,0.4 0.2,0.6c-0.1,0.2 -0.2,0.4 -0.3,0.6l-0.4,0.2c-0.2,0.4 -0.4,0.6 -0.8,0.7l-0.2,0.3c-0.1,0.4 -0.4,0.7 -0.8,0.8l-0.2,0.2c-0.5,0.6 0,1.7 -1,2.1c-0.7,-0.8 -1.2,-2.3 -2.7,-1.1c-0.2,-2.4 2.3,-3 3.1,-4.8z" class="st44"/>
  <path id="svg_58" d="m74.7,110c-0.6,1.2 -0.7,2 1,2c0.4,1 -0.3,1.3 -1,1.7c-0.3,0.2 -0.7,0.3 -1,0.5c-0.2,0.1 -0.3,0.2 -0.5,0.2c-0.3,0.2 -0.6,0.3 -1,0.5c-0.2,0 -0.4,0 -0.5,0.1c-0.9,-0.4 -1,-1.2 -1.1,-2.1c1,-1.5 2.2,-2.7 4.1,-2.9z" class="st45"/>
  <path stroke="null" style="vector-effect: non-scaling-stroke;" id="svg_60" d="m82.7,105c1.6,0.2 3.4,-0.7 4.8,0.9c-0.6,0.1 -1.2,0.1 -1.8,0.2c-0.6,0.5 -1.5,0.4 -2.1,0.9c-0.3,0 -0.6,0 -0.9,0.2c-0.4,0.3 -0.7,0.3 -1,-0.2c0.3,-0.7 0.6,-1.3 1,-2z" class="st46"/>
  <path id="svg_61" d="m81.6,106.9c0.3,0.1 0.7,0.1 1,0.2c-0.8,1.1 -1.9,0.9 -3,0.9c0.7,-0.4 1.4,-0.7 2,-1.1z" class="st45"/>
  <path id="svg_62" d="m79.7,108c-0.5,1 -1.3,1 -2.2,0.9c0.5,-0.8 1.3,-0.9 2.2,-0.9z" class="st45"/>
  <path id="svg_63" d="m76.6,109.1c-0.4,0.8 -1.2,0.9 -1.9,0.9c0.4,-0.8 1.1,-1 1.9,-0.9z" class="st45"/>
  <path id="svg_64" d="m73.6,121.9c-0.6,0 -1.3,0 -1.9,0.1c0,-0.4 0.1,-0.7 0.1,-1.1c0.7,0.1 1.5,0.2 1.8,1z" class="st47"/>
  <path id="svg_65" d="m73.6,113.2c0.7,-0.4 1.4,-0.8 2.1,-1.2l0,0c0.7,-0.6 1.6,-0.6 2.3,-0.9c0.3,0.1 0.5,0 0.7,-0.2c0.7,-0.5 1.6,-0.4 2.3,-0.8c0.3,0.1 0.5,0.1 0.7,-0.2c0.7,-0.5 1.6,-0.5 2.4,-0.8c0.3,0.1 0.5,0.1 0.6,-0.2c0.9,-0.8 2.2,-0.1 3.1,-0.9l0,0c2,-1.3 4.3,0.1 6.4,-0.9l0.3,0.2l0.3,-0.2c3,-0.8 6,-0.9 9,0c-1.9,5.1 -2.8,5.6 -9.9,6c-5.7,0.3 -11.3,1.2 -16.1,4.8c-2.7,0.6 -5.2,0.7 -5.9,-2.8l0.2,0c0.1,-0.3 0.3,-0.6 0.6,-0.9l0.3,-0.3c0,-0.3 0.3,-0.5 0.6,-0.7z" class="st48"/>
  <path id="svg_66" d="m99.7,121.8c-6,0.3 -12,0.5 -17.9,0.1c-0.4,-0.2 -0.5,-0.3 -0.4,-0.5c0.1,-0.1 0.3,-0.2 0.4,-0.2c2.4,-0.7 4.8,-1.4 7.2,-2c5,-2.5 10.2,-2.9 15.7,-2.2c0,0.2 0,0.4 0.2,0.5c0.3,0.1 0.6,0.2 0.7,0.5c-1,2.8 -4.2,2.2 -5.9,3.8z" class="st49"/>
  <path id="svg_67" d="m104.6,117c-5,2 -10.4,1.5 -15.7,2.2c-1.1,-0.3 -2.5,0.1 -3.3,-1.1c5.2,-3.5 11.2,-3.1 17,-3.3c1.4,0 2.2,0.7 2,2.2z" class="st50"/>
  <path id="svg_68" d="m104.7,106.1c-0.6,-1.7 -0.5,-1.4 1.3,-2c1.2,-0.4 0.3,-2 0.6,-2.9c1,2.2 2.4,4.6 -1.9,4.9z" class="st51"/>
  <path id="svg_69" d="m103.6,107.1c-3,0 -6,0 -9,0c3.1,-2.2 6.7,-0.6 10,-1.1c-0.3,0.4 -0.6,0.7 -1,1.1z" class="st45"/>
  <path id="svg_70" d="m105.9,100.8c-1,0.2 -1.8,0.1 -2.2,-1c0.8,0.4 1.5,0.7 2.2,1z" class="st51"/>
  <path id="svg_71" d="m105.6,117.9c-0.3,-0.1 -0.6,-0.2 -0.7,-0.5c0.5,-0.2 0.6,0.1 0.7,0.5z" class="st52"/>
  <path id="svg_72" d="m84.6,93.9c-0.3,-0.3 -0.7,-0.7 -1,-1c-0.2,-0.2 -0.3,-0.4 -0.2,-0.5c0.1,-0.1 0.2,-0.2 0.3,-0.2c0.3,-0.1 0.5,-0.2 0.8,-0.2c0.5,-0.2 0.8,-0.6 1.1,-1.1c0.3,-0.6 0.6,-1.3 1,-1.9c1.7,-4.2 5.6,-4.2 8.9,-4c3.1,0.2 5.6,-0.4 8,-2.1c0.4,1.4 -0.4,3.2 1.2,4.2c2.5,0.7 5,1.5 7.1,3.1c0.6,0.4 1.1,1.1 2,0.9c1.9,1.3 2.8,3.1 2.7,5.4c-1.4,-2.3 -2.8,-3.7 -6,-3.6c-3,0.1 -6.2,-1.1 -9.2,-2c-4.7,-1.4 -9.1,-1.3 -13.3,1.3c-0.6,0.1 -1,0.5 -1.4,0.9l0,0c-0.5,0.4 -1.3,0.6 -2,0.8z" class="st53"/>
  <path id="svg_74" d="m84.6,93.9c0.5,-0.7 1.2,-0.9 2.1,-0.9c-0.4,0.4 -0.8,0.7 -1.1,1.1l-0.4,0.3l-0.4,-0.3l-0.2,-0.2z" class="st44"/>
  <path id="svg_75" d="m86.7,93c0.3,-0.6 0.7,-0.9 1.4,-0.9c-0.5,0.3 -1,0.6 -1.4,0.9z" class="st44"/>
  <path id="svg_79" d="m87.5,78.1c3.3,-0.8 6.9,0.9 10.2,-1c1.6,-1 3.3,-0.7 5,-0.1c1.9,0.2 3,1 2.9,3.1c-0.3,0 -0.6,0 -0.9,0c-0.5,0.3 -1,0.5 -1.6,0.6c-3.6,0 -7.2,-0.1 -10.7,-0.2c-2,-0.2 -4.2,0.1 -4.9,-2.4z" class="st54"/>
  <path id="svg_80" d="m102.7,77c-1.7,0 -3.4,0.1 -5,0.1c-1,0 -2,-0.1 -2.9,-0.1c-0.7,-1.2 -4.6,0.7 -2.9,-2.9c0.3,-0.3 0.7,-0.7 1,-1c1.3,0.9 2.6,0.9 3.9,0.1c0.3,2.4 1.8,3 3.9,2.8c0.7,0 1.5,0.1 2,1z" class="st55"/>
  <path id="svg_81" d="m42.7,63.9c-0.7,-0.3 -1.3,-0.6 -2,-0.9c-8,-5.2 -7.9,-13 -6.6,-21.1c0.6,-3.7 0.3,-7.6 2.4,-11c1.7,-1.1 1.4,-4.4 4.4,-4.1c0.7,0.4 1.1,0.9 1.4,1.6c0.4,1.2 0.4,2.5 0.3,3.7c-0.6,2.9 -1.6,5.7 -1.7,8.8c0,2.2 0.1,4.3 2.1,5.8c0.4,0.7 0.6,1.4 0.7,2.2c0.2,1.8 -0.6,3.5 -0.7,5.3c-0.2,2.2 0.7,4.5 -0.4,6.7c0,0.7 0,1.4 0,2.1c0.2,0.2 0.3,0.4 0.2,0.5c0.1,0.3 0,0.4 -0.1,0.4z" class="st56"/>
  <path id="svg_82" d="m40.6,27c-1.6,1.1 -1.5,3.8 -4,3.9c0.4,-2.6 0.8,-5.1 2.8,-7c1.2,0.4 2.3,0.8 3.5,1.2c0.2,0.4 0.2,0.7 0,1.1c-0.7,0.6 -1.5,0.8 -2.3,0.8z" class="st57"/>
  <path id="svg_83" d="m87.5,78.1c3.2,1.4 6.5,0.7 9.8,0.9c2.1,0.1 4.3,-0.1 6.3,1.1c0.3,0.1 0.4,0.3 0.4,0.5c0,0.2 -0.1,0.4 -0.1,0.4c-0.1,0.6 -0.2,1.2 -0.3,1.8c-0.4,3.7 -2.1,4.7 -5.8,3.6c-4,-1.1 -7.8,0 -11.2,2.5c-6.2,0.3 -12.4,-0.8 -18.6,0c-1.9,0.2 -3.5,-0.6 -5.3,-1c-0.1,-1 -0.2,-1.9 -0.3,-2.9c-0.5,-5.1 -0.3,-5.3 5.1,-6.2c2.3,-1.9 5.1,-1 7.7,-1.2c2.2,0.4 4.4,1.4 6.7,0.4c1.9,0.1 3.7,0.1 5.6,0.1z" class="st58"/>
  <path id="svg_84" d="m112.7,91.1c-2.6,-1.5 -6,-1.3 -7.9,-4.1c1.1,-2.2 2.8,-1.8 4.4,-1c1.6,0.9 2.8,2.2 3.5,4c0.3,0.2 0.4,0.5 0.3,0.7c-0.2,0.3 -0.3,0.4 -0.3,0.4z" class="st59"/>
  <path id="svg_85" d="m112.7,91.1c0,-0.4 0,-0.7 0,-1.1c0.4,0.3 0.8,0.6 1.1,0.9c-0.1,0.4 -0.1,1 -0.7,0.9c-0.2,0 -0.3,-0.4 -0.4,-0.7z" class="st60"/>
  <path id="svg_86" d="m103.8,81c-0.2,-0.3 -0.3,-0.6 -0.3,-0.9c0.4,0 0.7,-0.1 1.1,-0.1c-0.2,0.3 -0.5,0.7 -0.8,1z" class="st8"/>
  <path id="svg_87" d="m93.8,42.2c0.6,0.3 1.3,0.5 1.9,0.8c0.6,0.5 1.3,1 1.9,1.5c1.9,1.4 2.7,3.4 2.2,5.7c-0.6,2.6 -2.8,3.9 -5.2,3.9c-3.1,0 -4.3,0.5 -3.1,4c1.7,4.8 -2.9,6.9 -4.8,10.1c-1.2,1.5 -2.4,2.8 -4,3.9l0,0c-0.4,0.3 -0.7,0.6 -1,0.9l0,0c-0.4,0.3 -0.7,0.7 -1.1,1l0,0c-0.3,0.4 -0.6,0.7 -1.1,1l0,0c-0.3,0.4 -0.6,0.8 -1,1.1l0,0c-0.3,0.4 -0.6,0.8 -1,1l0,0c-0.8,0.9 -2,1 -3.1,1c-3.6,0.7 -7.2,-1.2 -10.8,0c-0.3,0 -0.7,-0.1 -1,-0.1c-0.7,-0.2 -1.3,-0.6 -1.3,-1.5c0.1,-0.5 0.4,-0.8 0.8,-1.1c3.7,-0.9 6.7,-2.9 9.8,-5c2.5,1.4 3,-0.4 3.4,-2.2c2.1,0.5 3.5,-0.1 4.2,-2.3c0.7,-2.1 0.9,-4.1 1,-6.3c0.3,-5.7 -0.2,-6.2 -5.7,-6.2c-0.9,-0.4 -1.6,-1.1 -2.2,-1.9c-0.8,-1 -1.1,-2.2 -1.3,-3.4c-1.1,-5.2 3.3,-4.9 6.2,-6c1,-0.9 1,-2.5 2.2,-3.2c1,0.4 2,0.8 2.9,1.2c0.5,0.7 1.4,0.4 2,0.9c0.1,0.3 0.3,0.3 0.6,0.2c1.1,0.6 2.5,0 3.4,1l0.2,0.2l0.3,-0.1c0.3,0.1 0.6,0.2 0.8,0.5c0.4,0.7 0.8,-0.2 1.2,-0.1c1,-0.2 1.9,-0.1 2.7,-0.5l0,0z" class="st61"/>
  <path id="svg_88" d="m61.5,76.9c0.4,0.3 0.7,0.7 1.1,1c-2.3,1.5 -4.2,3.2 -3.7,6.4c0.5,3.4 -1.6,3.8 -4.2,3.8c-0.7,-0.4 -1.3,-0.7 -2,-1.1c-0.4,-0.3 -0.8,-0.7 -1,-1.1c-0.1,-0.6 -0.2,-1.2 -0.2,-1.9c-0.3,-0.8 -0.4,-1.6 -0.7,-2.4c-0.1,-1.3 0,-2.7 -1.1,-3.7c0,-0.8 -0.1,-1.7 -0.9,-2.3c-0.1,-0.5 -0.3,-1.1 -0.4,-1.6c-0.7,-2.8 -1.3,-5.6 -2.7,-8.2c-0.3,-2.5 -0.8,-4.9 -1.9,-7.1c-1.1,-0.9 -1.1,-2.2 -1,-3.5c0.1,-0.5 0.3,-0.9 0.6,-1.4c2.8,-1 5.2,-0.1 7.1,2.1c0.3,0.7 0.4,1.4 0.4,2.1c0.4,2.6 -1.5,5.1 -0.4,7.7c1.5,1.4 3.2,-0.1 4.8,0.2c0.7,0 1.4,0.2 2.1,0.5c1.4,1.1 1.5,2.5 0.9,4.1c-1,1.5 -2.6,1.9 -4.2,2.1c-0.3,0.1 -1,-0.1 -0.4,0.7c0.3,0.2 0.5,0.5 0.7,0.8c0.3,0.5 0.4,1.1 0.6,1.6c1.8,2.3 4.6,-0.8 6.5,1.2z" class="st62"/>
  <path id="svg_89" d="m63.7,78c3.5,-1.7 7.3,-1.2 11,-1c0.5,0.4 1.1,0.8 0.9,1.6c-2.7,0.1 -5.3,0.2 -8,0.2c-1.1,-1.3 -2.6,-0.6 -3.9,-0.8z" class="st63"/>
  <path id="svg_90" d="m81.8,121.2c0,0.2 0,0.5 0,0.7c-0.7,0 -1.4,0.1 -2.1,0.1c0,-0.3 0.1,-0.6 0.1,-0.8c0.6,0 1.3,0 2,0z" class="st64"/>
  <path id="svg_91" d="m43.4,55c0.1,1.3 0.2,2.5 0.3,3.8c-0.2,0.8 -0.1,1.7 -1.1,2.2c0,-2.4 -1.6,-4.5 -1,-6.9c1.1,-0.4 1.6,0.1 1.8,0.9z" class="st65"/>
  <path id="svg_92" d="m42.7,63.9c0,-0.3 0,-0.6 0,-0.8c0.6,0 0.8,0.3 0.9,0.8c0,0 -0.4,0.1 -0.4,0.1l-0.5,-0.1z" class="st66"/>
  <path id="svg_93" d="m84.4,74c0.4,-0.4 0.9,-0.8 1.3,-1.2c0.4,-0.1 0.7,-0.1 1,0.2l0,0c0.5,0.6 0.4,1.5 0.9,2.1l0,0c0.7,0.7 0.8,1.3 -0.2,1.9c-1.5,0 -3,0 -4.5,0c-0.3,-0.1 -0.5,-0.3 -0.4,-0.5c0.1,-0.2 0.1,-0.4 0.2,-0.4l0,0c0.3,-0.3 0.7,-0.7 0.9,-1.1l0,-0.1c0.4,-0.2 0.6,-0.5 0.8,-0.9z" class="st67"/>
  <path id="svg_94" d="m75.6,78.6c-0.3,-0.5 -0.6,-1 -0.9,-1.6c1,0 2,-0.1 2.9,-0.1c1.1,1.6 3,0.7 4.4,1.2c-2.1,0.9 -4.2,0.8 -6.4,0.5z" class="st54"/>
  <path id="svg_95" d="m82.7,72c1,-1.6 2.4,-2.8 4,-3.9c-0.4,2.3 -1.7,3.6 -4,3.9z" class="st54"/>
  <path id="svg_96" d="m91.7,74c-0.4,2.3 2.3,1.6 2.9,2.9c-1.5,-0.3 -5.1,1.3 -2.9,-2.9z" class="st54"/>
  <path id="svg_97" d="m87.4,76.9c0.1,-0.6 0.1,-1.2 0.2,-1.9c1.2,0.8 1.2,1.4 -0.2,1.9z" class="st54"/>
  <path id="svg_98" d="m87.6,75.1c-0.8,-0.5 -0.8,-1.3 -0.9,-2.1c0.9,0.5 1,1.2 0.9,2.1z" class="st54"/>
  <path id="svg_99" d="m79.6,75c0.1,-0.6 0.5,-0.9 1.1,-1c-0.4,0.3 -0.8,0.6 -1.1,1z" class="st54"/>
  <path id="svg_100" d="m84.4,74c0,0.5 -0.2,0.8 -0.8,0.9c0.3,-0.3 0.5,-0.6 0.8,-0.9z" class="st54"/>
  <path id="svg_101" d="m81.7,73c0.1,-0.5 0.5,-0.9 1,-0.9c-0.3,0.3 -0.7,0.6 -1,0.9z" class="st54"/>
  <path id="svg_102" d="m78.6,76c0.1,-0.6 0.4,-0.9 1,-1.1c-0.3,0.4 -0.7,0.7 -1,1.1z" class="st54"/>
  <path id="svg_103" d="m83.6,75c-0.1,0.6 -0.3,1 -0.9,1.1c0.3,-0.4 0.6,-0.8 0.9,-1.1z" class="st54"/>
  <path id="svg_104" d="m77.6,77c0.3,-0.3 0.7,-0.7 1,-1c-0.3,0.3 -0.7,0.6 -1,1z" class="st54"/>
  <path id="svg_105" d="m82.7,76c0,0.3 0.1,0.6 0.2,0.9c-0.3,-0.1 -0.5,-0.2 -0.8,-0.3c0.2,-0.2 0.4,-0.4 0.6,-0.6z" class="st54"/>
  <path id="svg_106" d="m86.7,73c-0.3,-0.1 -0.7,-0.1 -1,-0.2c0.4,-0.7 0.8,-0.5 1,0.2z" class="st54"/>
  <path id="svg_107" d="m80.6,74c0.1,-0.6 0.5,-0.9 1.1,-1c-0.4,0.3 -0.7,0.6 -1.1,1z" class="st54"/>
  <path id="svg_108" d="m79.8,38.8c-0.2,1.4 0.5,3.2 -1.2,4.2c-0.7,-0.1 -1.3,-0.3 -1.9,-0.6c-5.4,-2.2 -10,-1.1 -13.9,3.1c-0.2,0.4 -0.5,0.8 -0.8,1.1c-1.2,1.1 -2.5,1.5 -4,0.8c-0.5,-0.5 -0.8,-1 -0.4,-1.7c-0.4,0.4 -0.4,1 -0.4,1.5c0,0.8 -0.1,1.6 -0.2,2.4c-0.8,2.3 -0.8,4.8 -1.2,7.2c-0.9,2.6 -0.6,5.3 -0.3,8c0,0.5 -0.2,1 -0.6,1.4c-1,0.2 -2.1,0.4 -3.2,0.4c-0.6,-0.1 -1,-0.5 -1.3,-0.9c-1,-2.4 0.4,-4.8 0.1,-7.2c0.8,-2 0.1,-4.1 0.4,-6.1c0.3,-1.6 0.8,-3.1 1.1,-4.7c0.2,-0.9 0.8,-1.8 -0.2,-2.6c-0.8,-0.6 -1.7,-1 -2.6,-1.4c-2.3,-1.2 -4.6,1.6 -6.9,0.2c-2.1,-3.9 0.8,-7.6 0.7,-11.4c0.6,-1.8 0.7,-3.7 1.9,-5.2c0.3,-0.3 0.6,-0.6 1,-0.9c0.3,-0.2 0.7,-0.5 1,-0.7c0.2,-0.1 0.3,-0.2 0.5,-0.3c0.3,-0.3 0.6,-0.5 0.9,-0.7c0.1,-0.1 0.3,-0.3 0.4,-0.4c0.5,-0.5 1.1,-1 1.6,-1.6c0.2,-0.3 0.5,-0.6 0.7,-0.9c0.2,-0.1 0.3,-0.3 0.1,-0.5c2.1,-2.1 3.4,1.1 5.3,0.8c2.7,1.6 5.7,0.4 8.6,0.8c1.9,-0.6 3.1,-0.4 4,1.8c2,5.7 6,10.3 10.8,14.1z" class="st68"/>
  <path id="svg_109" d="m55.7,22.9c-1.9,0.3 -3,-1.9 -4.9,-1.6c-1.1,-2.1 0.2,-2.3 1.7,-1.9c2.2,0.7 4.2,1.6 6.4,2.4c-0.8,1.4 -2.2,0.6 -3.2,1.1z" class="st69"/>
  <path id="svg_110" d="m55.7,22.9c0.8,-1.2 2.1,-0.7 3.1,-1c0.9,0 1.8,0 2.7,0.1c1.1,0.2 2.3,-0.2 3.1,0.9c-2.9,1.3 -5.9,1.3 -8.9,0z" class="st70"/>
  <path id="svg_111" d="m50.7,23c0.1,1.2 -0.7,1.8 -1.7,2.2c-0.7,-0.1 -1.5,-0.2 -2,-0.7c-0.1,-0.2 -0.2,-0.3 -0.3,-0.5c0.7,-1.1 1.8,-1.6 3,-2c0.3,0.3 0.7,0.7 1,1z" class="st71"/>
  <path id="svg_112" d="m42.6,26c0.1,-0.3 0.2,-0.6 0.2,-0.8c1.3,-0.4 2.6,-0.7 3.9,-1.1l0,0.1c-0.4,2.7 -1.9,3 -4.1,1.8z" class="st71"/>
  <path id="svg_113" d="m50.7,23c-0.3,-0.3 -0.6,-0.6 -1,-1c0.3,-0.1 0.6,-0.2 1,-0.2c0,0.4 0,0.8 0,1.2z" class="st72"/>
  <path id="svg_114" d="m89.9,42.9c-0.2,-0.3 -0.4,-0.5 -0.7,-0.7c1.5,0 3.1,0 4.6,0c-0.8,1 -2.1,0.5 -3.1,0.9c-0.3,0.3 -0.6,0.3 -0.8,-0.2z" class="st26"/>
  <path id="svg_115" d="m88.7,42.1c-1.3,0.1 -2.4,-0.1 -3.4,-1c1.2,0 2.6,-0.4 3.4,1z" class="st26"/>
  <path id="svg_116" d="m84.6,40.9c-0.8,0 -1.5,-0.2 -2,-0.9c0.9,0 1.6,0.1 2,0.9z" class="st26"/>
  <path id="svg_117" d="m75.7,30c0.3,0.3 0.7,0.7 1,1c-0.4,-0.3 -0.7,-0.6 -1,-1z" class="st32"/>
  <path id="svg_118" d="m50.8,81.6c0.6,0.7 0.9,1.5 0.7,2.4c-0.9,-0.6 -0.8,-1.5 -0.7,-2.4z" class="st41"/>
  <path id="svg_119" d="m51.7,85.9c0.3,0.4 0.6,0.8 1,1.1c-0.3,0 -0.7,0.1 -1,0.1c0,-0.4 0,-0.8 0,-1.2z" class="st41"/>
  <path id="svg_120" d="m90.7,105.1c-0.7,-0.2 -1.5,-0.1 -1.8,-1c3.4,-0.7 5.8,-3.9 9.7,-3.3c1.9,0.3 3.2,0.6 3,2.8c-2.1,2 -4.9,-0.1 -7.1,1.3c-1.3,0.1 -2.5,0.1 -3.8,0.2z" class="st73"/>
  <path id="svg_121" d="m94.5,104.9c2.1,-1.6 4.8,-0.1 7.1,-1.3c-2,2.7 -4.7,0.9 -7.1,1.3z" class="st45"/>
  <path id="svg_122" d="m94.1,107.1c-2,1 -4.2,0.7 -6.4,0.9c1.9,-1.9 4.2,-0.7 6.4,-0.9z" class="st45"/>
  <path id="svg_123" d="m87.7,108c-0.9,0.9 -1.9,1 -3.1,0.9c0.8,-1.1 2,-0.9 3.1,-0.9z" class="st45"/>
  <path id="svg_124" d="m83.5,106.9c0.5,-0.7 1.3,-0.9 2.1,-0.9c-0.4,0.9 -1.2,1 -2.1,0.9z" class="st45"/>
  <path id="svg_125" d="m84.1,109.1c-0.6,0.8 -1.5,0.9 -2.4,0.8c0.6,-0.9 1.4,-0.9 2.4,-0.8z" class="st45"/>
  <path id="svg_126" d="m81,110.1c-0.6,0.8 -1.4,0.8 -2.3,0.8c0.5,-0.9 1.4,-0.9 2.3,-0.8z" class="st45"/>
  <path id="svg_127" d="m78,111.1c-0.6,0.8 -1.4,0.9 -2.3,0.9c0.5,-1 1.4,-1 2.3,-0.9z" class="st45"/>
  <path id="svg_128" d="m85.6,90.9c-0.4,0.4 -0.7,0.7 -1.1,1.1c0.4,-0.4 0.7,-0.8 1.1,-1.1z" class="st44"/>
  <path id="svg_129" d="m83.7,92.2c0,0.2 -0.1,0.5 -0.1,0.7l-0.4,0.1l-0.5,0c0.3,-0.3 0.7,-0.6 1,-0.8z" class="st5"/>
  <path id="svg_130" d="m73.6,113.2c-0.1,0.5 -0.3,0.7 -0.8,0.6c0,-0.5 0.3,-0.7 0.8,-0.6z" class="st5"/>
  <path id="svg_131" d="m72.5,114.1c-0.2,0.3 -0.4,0.6 -0.6,0.9c-0.2,-0.5 0.1,-0.8 0.6,-0.9z" class="st5"/>
  <path id="svg_132" d="m42.6,26c1.8,0.2 3.3,-0.1 4.1,-1.9c1,0 1.8,0.3 2.3,1.1l0,0c-0.7,-0.1 -0.9,0.5 -1.2,0.9l0.1,-0.1c-0.4,0.2 -0.7,0.5 -1.1,0.7c-0.2,0.3 -0.4,0.4 -0.8,0.3c-2.9,0.9 -1.2,3.6 -2.1,5.2c0.4,3.9 -2,7.6 -1,11.5c0.8,1.1 0.8,2.1 -0.1,3.2c-2.3,-0.1 -2.9,-1.6 -3,-3.6c-0.2,-4 0.5,-7.7 2,-11.4c0.8,-1.3 0.8,-2.7 0,-4c-0.4,-0.3 -0.7,-0.7 -1.1,-1c0.3,-0.7 1,-0.9 1.9,-0.9z" class="st74"/>
  <path id="svg_133" d="m42.7,47c0,-1.1 0,-2.1 0.1,-3.2c2.3,-0.8 4.4,-3.1 7.1,-0.9c0.9,3.4 -1.9,2.9 -3.6,3.5c-0.6,0.4 -1.1,-0.7 -1.7,-0.1c0.1,0.5 0,1.1 -0.1,1.6c-0.1,0.4 -0.3,0.7 -0.6,1c-0.3,0.2 -0.7,0.3 -1.1,0.1c-0.1,-0.6 -0.1,-1.3 -0.1,-2z" class="st75"/>
  <path id="svg_134" d="m42.8,49.1c0.3,0 0.6,0 0.8,-0.1c0.2,0.1 0.3,0.3 0.5,0.4c0.2,0.4 0.4,0.7 0.4,1.1c0.1,0.8 0.1,1.6 -0.1,2.5c-0.2,0.4 -0.4,0.7 -0.7,1c-0.1,0.3 -0.2,0.6 -0.3,0.9c-0.6,-0.3 -1.1,-0.6 -1.7,-0.9c0.4,-1.6 0.7,-3.3 1.1,-4.9z" class="st76"/>
  <path id="svg_135" d="m41.6,28c1.5,1.3 1.5,2.7 0,4c0.1,-1.3 0,-2.7 0,-4z" class="st71"/>
  <path id="svg_136" d="m74.8,53.1c5.3,-2.4 7.7,-0.8 7.2,5.1c-0.3,3.4 -0.1,6.9 -2.1,10c-1.6,2.5 -2.9,2.5 -4.1,-0.2c-2.1,-0.3 -3,-1.9 -4,-3.5c-1.2,-2.9 -4.5,-2.4 -6.5,-4c-0.9,-0.8 -1.4,-1.8 -1.8,-3c-0.2,-0.5 -0.3,-0.9 -0.3,-1.4c0,-0.2 0,-0.5 0.1,-0.7c0.2,-0.5 0.5,-0.8 0.9,-1c3.2,-0.9 6.6,-0.3 9.8,-1.3c0.3,-0.1 0.5,0 0.8,0z" class="st52"/>
  <path id="svg_137" d="m77.6,42.1c0.3,0.3 0.6,0.6 0.9,1c-0.9,1.1 -2,0.7 -3.1,0.7c-3.2,0 -3.7,1.7 -2.9,4.3c-0.6,0.7 -0.2,2.2 -1.7,2.2c-0.7,-0.4 -1.3,-0.5 -1.9,0.2c-0.9,0.9 -1.9,1.6 -3.2,1.8c-0.7,0 -1.2,-0.2 -1.6,-0.9c0,-0.2 -0.1,-0.4 -0.1,-0.6c0,-0.4 0.2,-0.8 0.4,-1.2c0.5,-0.6 0.9,-1.3 1.3,-2c0.2,-0.3 0.4,-0.7 0.6,-0.9c0.3,-0.1 0.4,-0.3 0.3,-0.4c-0.1,-0.2 -0.2,-0.2 -0.3,-0.3c-0.1,-0.4 0,-0.8 0.2,-1.1c1,-0.7 2,-1.3 2.5,-2.4c3,-1.3 5.8,-0.6 8.6,-0.4z" class="st77"/>
  <path id="svg_138" d="m72.6,64.1c1.1,1.3 2.1,2.6 3.2,3.9c1.3,4.3 -2.5,2.5 -4,3.4c-0.3,-0.2 -0.6,-0.5 -0.7,-0.9c-0.1,-0.4 -0.2,-0.8 -0.2,-1.1c-0.3,-1.1 -1.3,-1.4 -2,-2c-0.3,-0.4 -0.5,-0.8 -0.5,-1.3c0.6,-2.2 1.6,-3.8 4.2,-2z" class="st78"/>
  <path id="svg_139" d="m71.6,70c0,0.5 0.1,0.9 0.1,1.4c-2.7,2.8 -5.9,4.5 -9.7,4.8c-0.7,0.4 -1.2,0.2 -1.6,-0.5c0,-0.2 0,-0.4 0,-0.6c0.2,-0.3 0.6,-0.6 0.9,-0.8c0.7,-0.4 1.4,-0.9 2.1,-1.4c1.6,-1 3.6,-1.3 5.2,-2.5c0.4,-0.2 0.8,-0.4 1.2,-0.6c0.2,-0.1 0.4,-0.1 0.6,-0.2c0.5,-0.1 0.9,0.1 1.2,0.4z" class="st79"/>
  <path id="svg_140" d="m60.6,74.9c0.5,0.4 0.9,0.8 1.4,1.2c-0.2,0.2 -0.3,0.5 -0.5,0.8c-2.3,0.4 -4.5,1 -6.8,1.2c-1.3,0.1 -2.4,-0.5 -1.1,-2.1c0.5,-0.7 1,-1.5 2,-1.5c1.7,0.1 3.5,-1 5,0.4z" class="st80"/>
  <path id="svg_141" d="m70.350001,50c0.7,-0.6 1.3,-1.3 2,-1.9c0.6,0.9 -0.4,2.3 0.9,3c0.8,0.5 0.7,1.2 0.5,1.9c-0.4,0.3 -0.8,0.5 -1.3,0.5c-1.7,-0.2 -3.5,-0.1 -4.3,-2.1c0.4,-1 0.9,-1.8 2.2,-1.4z" class="st81"/>
  <path id="svg_142" d="m92.8,48c-0.2,-0.9 0.1,-1.8 1.1,-1.5c1.2,0.4 0.7,1.5 0.6,2.5c-0.2,0.1 -0.3,0.2 -0.5,0.3c-0.2,-0.1 -0.4,-0.2 -0.6,-0.3c-0.2,-0.3 -0.4,-0.7 -0.6,-1z" class="st82"/>
  <path id="svg_143" d="m95.7,50.1c0.5,-0.2 1.4,-1 1.6,-0.4c0.7,1.4 -0.5,1.9 -1.6,2.4c-0.3,-0.3 -0.5,-0.6 -0.6,-1c0,-0.4 0.2,-0.8 0.6,-1z" class="st83"/>
  <path id="svg_144" d="m95.7,51c0,0.4 0,0.7 0,1.1c-0.7,0.7 -1.4,0.9 -2.1,0c-0.4,-0.4 -0.4,-0.9 0,-1.3c0.7,-0.4 1.4,-0.4 2.1,0.2z" class="st84"/>
  <path id="svg_145" d="m93.7,51c0,0.4 0,0.7 -0.1,1.1c-1.5,-0.7 -0.9,-2 -0.8,-3.1c0.3,-0.3 0.5,-0.3 0.8,0l0,0c0.6,0.7 0.7,1.3 0.1,2z" class="st85"/>
  <path id="svg_146" d="m93.7,51c0,-0.7 0,-1.3 0,-2c0.3,0 0.5,0 0.8,0c0.2,0.6 0.5,1 1.2,1.1c0,0.3 0,0.6 0,0.9c-0.7,0 -1.4,0 -2,0z" class="st86"/>
  <path id="svg_147" d="m73.4,52.9c0,-0.6 0,-1.2 0.1,-1.8c1.1,0.3 1.2,1.2 1.3,2l0,0c-0.6,0.4 -1,0.3 -1.4,-0.2z" class="st87"/>
  <path id="svg_148" d="m89.9,42.9c0.3,-0.2 0.6,-0.1 0.8,0.1c-0.3,0.6 -0.6,1.2 -1.4,0.6c0.2,-0.3 0.4,-0.5 0.6,-0.7z" class="st88"/>
  <path id="svg_149" d="m93.7,49c-0.3,0 -0.6,0 -0.8,0c0,-0.4 -0.1,-0.7 -0.1,-1.1c0.3,0.4 0.6,0.8 0.9,1.1z" class="st86"/>
  <path id="svg_150" d="m72.6,64.1c-2.6,-0.8 -3.3,1.1 -4,2.9c-0.1,0.7 -0.5,1.2 -1,1.5c-0.9,0.5 -1.9,0.7 -2.9,1.1c-1,0.3 -2,0.6 -2.9,0.9c-1.2,0.4 -2.4,0.8 -3.6,0.6c-0.1,-0.2 -0.3,-0.3 -0.4,-0.5c-0.1,-1.4 0.3,-3 -1.3,-4c-0.1,-0.4 -0.1,-0.7 0.2,-1.1c0.6,-0.5 1.2,-0.9 1.9,-1.2c0.3,-0.2 0.7,-0.3 1,-0.5c0.7,-0.3 1.3,-0.6 2,-1c0.6,-0.3 1.3,-0.6 1.9,-1c0.3,-0.2 0.6,-0.4 0.8,-0.6c0.4,-0.4 0.7,-0.8 1.1,-1.1c0.2,-0.1 0.3,-0.1 0.5,-0.2c2.3,1.2 6,0.3 6.7,4.2z" class="st89"/>
  <path id="svg_151" d="m43.8,54c0,-0.3 0,-0.7 0,-1c0.3,-0.3 0.6,-0.6 0.9,-0.7c0.4,-0.1 0.8,-0.2 1.1,-0.3c0.7,-0.1 1.5,-0.2 2.1,-0.7c0.5,-1.1 0,-1.9 -0.6,-2.6c-0.5,-0.3 -1,-0.4 -1.5,-0.4c-0.4,0.1 -0.7,0.1 -1.1,0.1c-0.2,0 -0.4,0 -0.6,0c-0.1,-0.1 -0.3,-0.3 -0.4,-0.4c0,-0.7 0,-1.3 0,-2c0.3,-0.3 0.7,-0.4 1.1,-0.2c1.3,-1.5 4.8,0.6 4.9,-2.9c1,0.3 1.7,1.3 2.9,1.1c0.3,1 -0.1,1.9 -0.4,2.8c0.1,2 -0.9,3.7 -1.1,5.7c-0.4,1.2 1.1,3.2 -1.4,3.6c-1.9,-0.7 -3.9,-1.4 -5.9,-2.1z" class="st90"/>
  <path id="svg_152" d="m50.7,58c0,2.6 0.1,5.3 0.1,7.9c0,0.4 -0.2,0.7 -0.4,1c-0.3,0.2 -0.6,0.3 -1,0.4c-1.7,-3.2 0.4,-6.1 0.5,-9.2c0.2,-0.4 0.5,-0.4 0.8,-0.1z" class="st91"/>
  <path id="svg_153" d="m52.7,72c1.7,-0.4 3.3,-0.8 5,-1.2l-0.1,0.4c0.7,0.1 1.2,0.4 1.4,1.1c0,0.4 -0.2,0.8 -0.6,1.1c-0.8,0.5 -1.6,0.6 -2.4,0.6c-0.8,-0.1 -1.6,0.6 -2.4,-0.1c-0.3,-0.1 -0.6,-0.1 -0.9,-0.2c-0.8,-0.3 -1.3,-0.7 -1.1,-1.6c0.2,-0.4 0.7,-0.3 1.1,-0.1z" class="st92"/>
  <path id="svg_154" d="m50.7,58c-0.3,0 -0.6,0 -0.9,0c0,-0.6 -0.1,-1.3 -0.1,-1.9c1.2,-1.1 0.8,-2.7 1.1,-4.1c0.3,-0.5 0.5,-0.5 0.8,0c0,2 0.4,4.2 -0.9,6z" class="st93"/>
  <path id="svg_155" d="m51.6,66.1c1,-0.1 2,-0.2 3,-0.3c0.3,0.2 0.3,0.5 0.3,0.7c-0.1,0.3 -0.2,0.4 -0.2,0.4c-1.7,0.2 -3.3,2.4 -5.2,0.4c0.2,-0.1 0.4,-0.2 0.5,-0.4c0.5,-0.4 1.2,-0.4 1.6,-0.8z" class="st94"/>
  <path id="svg_156" d="m52.7,72c-1.2,0.6 -0.2,1.2 0,1.8c-1.7,0.2 -2.4,-0.8 -1.7,-2.2c0.5,-1.2 1.2,-0.1 1.7,0.4z" class="st95"/>
  <path id="svg_157" d="m53.7,74c0.8,-0.2 1.5,-0.5 2.3,-0.7c0.3,0.7 0.2,1.4 -0.5,1.8c-0.6,0.3 -1.2,0.6 -1.8,1c0,-0.8 0,-1.4 0,-2.1z" class="st95"/>
  <path id="svg_158" d="m54.6,66.9c0,-0.4 0,-0.7 0,-1.1c-0.2,-0.2 -0.2,-0.4 -0.1,-0.7c0.3,-0.3 0.7,-0.4 1.1,-0.3c0.6,0.2 1,0.6 1.1,1.2c-0.1,0.2 -0.2,0.5 -0.3,0.7c-0.6,0.1 -1.2,0.1 -1.8,0.2z" class="st96"/>
  <path id="svg_159" d="m73.4,52.9c0.4,0.1 0.9,0.1 1.3,0.2c-3.2,3.2 -7.3,1.5 -11,2c-0.4,0.3 -0.7,0.7 -0.9,1.2c0,0.5 0,1 0.1,1.5c0.2,0.5 0.5,1 0.7,1.4c0.5,0.9 0.9,1.8 0.4,2.8c-0.4,0.5 -1,0.6 -1.6,0.8c-0.6,0.2 -1.1,0.4 -1.7,0.7c-0.4,0.2 -0.8,0.4 -1.1,0.5c-0.4,0.2 -0.8,0.3 -1.2,0.5c-0.2,0 -0.4,0.1 -0.7,0.1c-0.5,-0.1 -0.9,-0.3 -1.3,-0.6c-1,-1.2 -1,-2.7 -1.1,-4.2c0,-1.7 0.4,-3.4 0.3,-5.2c0,-0.5 0.1,-1 0.1,-1.5c0.2,-1 0.7,-1.9 0.8,-2.9c0.1,-1.2 -0.1,-2.6 1.2,-3.4c1.4,0.3 2.6,-0.2 3.6,-1c1.2,-0.9 2.4,-1.2 3.9,-0.8c0.5,0.2 1,0.5 1.4,0.9l0,0c0.2,0.3 0.3,0.7 0.1,1.1l-0.2,0c-0.5,1.1 -0.5,2.5 -1.9,2.9l0,0.1c-0.2,0.2 -0.3,0.4 -0.3,0.6c0,0.2 0.1,0.4 0.1,0.4c0.4,0.3 0.9,0.6 1.3,0.9c0.2,0 0.4,0.1 0.5,0.1c0.4,0 0.8,0.1 1.1,0.1c0.6,0.1 1.1,0.4 1.6,0.6c0.8,0.3 1.6,0.3 2.3,0.1c0.4,-0.2 0.8,-0.2 1.2,0c0.5,0 0.7,0.1 1,0.1z" class="st61"/>
  <path id="svg_160" d="m77.6,42.1c-2.6,2.3 -6.3,-0.5 -9,1.8c-1,0.8 -2.4,0.7 -3.3,1.5c-1.2,-0.1 -2.5,0.5 -3.6,-0.5c3.2,-5 10.8,-6.4 15.9,-2.8z" class="st97"/>
  <path id="svg_161" d="m56.9,53c-0.1,0.3 -0.2,0.7 -0.4,1c-0.7,2.1 -0.2,4.3 -0.3,6.4c-0.3,1.3 0.7,2.9 -0.9,3.9c-2.1,-2.3 -0.9,-5 -0.7,-7.5c0,-2.6 0.2,-5.2 1.2,-7.7c1.6,-0.3 1.3,0.9 1.4,1.8c-0.1,0.7 0,1.4 -0.3,2.1z" class="st98"/>
  <path id="svg_162" d="m54.5,56.8c0.7,2.3 -0.8,5 1,7.2c0.1,0.2 0.3,0.3 0.4,0.5c-0.1,0.2 -0.2,0.4 -0.2,0.6c-0.4,0 -0.8,0 -1.2,0c-1.5,-2.8 -0.8,-5.6 0,-8.3z" class="st99"/>
  <path id="svg_163" d="m56.8,51.2c-0.3,-0.7 -0.2,-1.6 -1,-2.1c-0.3,-1 0.1,-1.9 0.7,-2.7c0.2,-0.4 0.1,-1.5 1.1,-0.8c0.3,0.2 0.2,0.9 0.3,1.3c-0.1,1.3 -0.2,2.6 -0.3,3.8c-0.1,0.5 -0.4,0.7 -0.8,0.5z" class="st100"/>
  <path id="svg_164" d="m51.7,52c-0.3,0 -0.5,0 -0.8,0c0.4,-1.9 0.7,-3.8 1.1,-5.8c0.9,-0.3 1.3,-0.1 0.9,0.9c-0.3,1.7 -0.1,3.5 -1.2,4.9z" class="st101"/>
  <path id="svg_165" d="m43.8,32.3c0.4,-1.9 -1.7,-4.8 2.1,-5.2c-1.9,1.2 -0.8,3.7 -2.1,5.2z" class="st71"/>
  <path id="svg_166" d="m52.9,47.2c-0.3,-0.3 -0.6,-0.6 -0.9,-0.9c0.3,-0.7 0.5,-1.5 0.8,-2.2c1.7,0.9 0.8,2 0.1,3.1z" class="st102"/>
  <path id="svg_167" d="m61.7,44.9c1.3,0.6 2.6,0.1 3.9,0.2c0.3,0.2 0.4,0.4 0.3,0.6c-0.1,0.2 -0.2,0.3 -0.3,0.3c-1.4,0 -2.8,0 -4.2,-0.1c0.2,-0.3 0.2,-0.7 0.3,-1z" class="st87"/>
  <path id="svg_168" d="m51.6,66.1c-0.3,0.8 -1,0.9 -1.7,0.8c0.3,-0.3 0.6,-0.6 0.9,-1c0.3,-0.1 0.6,0 0.8,0.2z" class="st103"/>
  <path id="svg_169" d="m47.7,26.1c0.2,-0.6 0.6,-0.9 1.2,-0.9c-0.1,0.6 -0.6,0.9 -1.2,0.9z" class="st71"/>
  <path id="svg_170" d="m46.7,26.8c0.4,-0.2 0.7,-0.5 1.1,-0.7c-0.2,0.5 -0.5,0.8 -1.1,0.7z" class="st71"/>
  <path id="svg_171" d="m43.8,48c0.3,0 0.5,0 0.8,0c0.2,0.2 0.3,0.5 0.3,0.7c0,0.3 -0.1,0.4 -0.1,0.4c-0.4,0.3 -0.8,0.3 -1.1,-0.1c0,0 0,-0.1 0,-0.1c0,-0.2 0,-0.6 0.1,-0.9z" class="st104"/>
  <path id="svg_172" d="m44.9,45.9c-0.4,0.1 -0.7,0.1 -1.1,0.2c0.2,-1.2 0.7,-0.7 1.1,-0.2z" class="st104"/>
  <path id="svg_173" d="m44.8,52.9c-0.4,0 -0.7,0.1 -1.1,0.1c0,-1 0,-1.9 0,-2.9c0.4,-0.4 0.8,-0.4 1.2,0c0.6,1 0.6,1.9 -0.1,2.8z" class="st105"/>
  <path id="svg_174" d="m44.4,50.2c-0.2,0 -0.4,-0.1 -0.6,-0.1c-0.1,-0.3 -0.1,-0.7 -0.2,-1c0.3,0 0.6,0 0.9,-0.1c0.4,0.4 0.4,0.8 -0.1,1.2z" class="st56"/>
  <path id="svg_175" d="m61.7,58c0,-0.7 0,-1.3 0,-2c0.6,-0.6 1.3,-0.6 2,-0.1l0,0c0.3,0.4 0.7,0.7 0.9,1.2c0.4,1 0.8,1.9 1.2,2.9l-0.4,0c-0.2,0.7 -0.2,1.4 -0.7,2l0.1,0.1c-0.4,0.3 -0.8,0.2 -1.1,-0.1c0.2,-1.3 -0.3,-2.3 -1.3,-3.1c-0.2,-0.4 -0.4,-0.7 -0.7,-0.9z" class="st106"/>
  <path id="svg_176" d="m63.7,56c-0.7,0 -1.3,0 -2,0.1c0.4,-0.9 1.2,-1 2.1,-1c0,0.2 -0.1,0.6 -0.1,0.9z" class="st87"/>
  <path id="svg_177" d="m64.6,57.1c-0.3,-0.4 -0.6,-0.8 -0.9,-1.2c0.5,0.3 0.9,0.6 0.9,1.2z" class="st87"/>
  <path id="svg_179" d="m68.8,50.7c0,-0.3 -0.1,-0.5 -0.3,-0.6c0,-1.1 0,-2.6 1.5,-2.4c1.2,0.1 0.9,1.4 0.5,2.3c-0.5,0.2 -1.1,0.4 -1.7,0.7z" class="st107"/>
  <path id="svg_180" d="m65.7,46c-0.1,-0.3 -0.1,-0.6 -0.1,-0.9c0.6,-1.4 1.9,-1 3,-1.2c0.7,2 -1.9,0.8 -2,2.1c-0.2,0 -0.6,0 -0.9,0z" class="st108"/>
  <path id="svg_181" d="m64.6,49.9c0.6,-1 1.3,-2 1.9,-2.9c-0.1,1.2 0.1,2.8 -1.9,2.9z" class="st87"/>
  <path id="svg_182" d="m64.5,51c-0.1,-0.2 -0.2,-0.5 -0.3,-0.7c0,-0.1 0.2,-0.2 0.4,-0.3c0,0.3 -0.1,0.6 -0.1,1z" class="st87"/>
  <path id="svg_183" d="m66.8,47.1c0,-0.4 -0.1,-0.7 -0.1,-1.1c0.9,0.3 0.8,0.6 0.1,1.1z" class="st108"/>
  <path id="svg_184" d="m55.4,75.1c0.2,-0.6 0.4,-1.2 0.5,-1.8c0.9,-0.1 1.7,-0.2 2.6,-0.4c0.6,-0.4 1.1,-1 1.8,-1.3c0.3,-0.2 0.7,-0.3 1,-0.4c0.7,-0.2 1.4,-0.4 2,-0.8c0.6,-0.4 1.3,-0.6 1.9,-1c0.7,-0.3 1.4,-0.6 2.1,-0.8c0.9,-0.3 1.5,-1.1 2.4,-1.4c1.6,-0.2 3,-0.2 1.9,2c-0.4,0.2 -0.7,0.5 -1,0.9l0,0c-0.3,0.3 -0.7,0.5 -1,0.8c-1.6,1.7 -4.1,1.9 -6,3.1c-0.4,0.4 -0.9,0.5 -1.5,0.5c-0.5,0 -1.1,0.1 -1.6,0.2l0.1,0.3c-1.7,-0.6 -3.4,2 -5.2,0.1z" class="st109"/>
  <path id="svg_185" d="m69.8,67.1c-0.4,1 -1.3,1.3 -2.2,1.7c-0.5,-0.4 -0.5,-0.8 -0.1,-1.2c0.4,-0.2 0.7,-0.4 1.1,-0.6c0.4,0 0.8,0.1 1.2,0.1z" class="st110"/>
  <path id="svg_186" d="m70.7,70c0.1,-0.5 0.4,-0.9 1,-0.9c0,0.3 -0.1,0.5 -0.1,0.8c-0.3,0.1 -0.6,0.1 -0.9,0.1z" class="st61"/>
  <path id="svg_187" d="m61.8,74.2c0.6,-0.1 1.2,-0.1 1.9,-0.2c-0.5,1 -1.4,1 -2.3,0.9c-0.1,-0.4 0,-0.6 0.4,-0.7z" class="st80"/>
  <path id="svg_188" d="m69.7,70.9c0.2,-0.5 0.5,-0.8 1,-0.8c-0.1,0.5 -0.4,0.8 -1,0.8z" class="st61"/>
  <path id="svg_189" d="m61.5,71.8c-0.3,0.1 -0.6,0.2 -0.9,0.3c-0.5,0.4 -1.1,0.4 -1.6,0c-0.4,-0.3 -0.9,-0.6 -1.3,-0.9c1.2,-0.6 2.5,-1.3 3.9,-1.3c0.1,0.1 0.3,0.2 0.4,0.3c0.2,0.3 0.2,0.6 0.2,1c-0.1,0.3 -0.3,0.5 -0.7,0.6z" class="st111"/>
  <path id="svg_190" d="m65.6,69.9c-0.7,0.4 -1.3,0.8 -2,1.1c-0.2,0.3 -0.5,0.4 -0.9,0.3c-0.5,-0.3 -0.6,-0.8 -0.9,-1.2l-0.2,-0.2c0.8,-0.9 1.9,-0.8 2.9,-1.1c1,-0.4 1.3,0.2 1.1,1.1z" class="st112"/>
  <path id="svg_191" d="m65.6,69.9c-0.4,-0.4 -0.8,-0.7 -1.2,-1.1c0.8,-0.9 2.1,-0.8 3.1,-1.2c0,0.4 0,0.8 0.1,1.2c-0.5,0.5 -1.1,1.1 -2,1.1z" class="st113"/>
  <path id="svg_192" d="m57.7,64c0.3,0 0.7,0.1 1,0.1c0.3,0.2 0.3,0.4 0.2,0.6c-0.1,0.2 -0.2,0.2 -0.3,0.2c-0.4,0.9 -1.2,0.9 -2,1c-0.3,-0.3 -0.6,-0.7 -1,-1l-0.1,0c0.6,-0.7 1.6,-0.3 2.2,-0.9z" class="st114"/>
  <path id="svg_193" d="m63.6,62c0.4,0 0.8,0.1 1.1,0.1c-0.9,0.9 -1.9,1.6 -3.1,1.8c-0.3,-0.2 -0.5,-0.6 -0.4,-1c0.1,-0.4 0.3,-0.7 0.7,-0.9c0.6,0 1.1,0 1.7,0z" class="st115"/>
  <path id="svg_194" d="m61.6,62.9c0,0.3 0,0.7 0,1c-0.7,0.3 -1.3,0.6 -2,0.9c-0.3,-0.2 -0.4,-0.5 -0.4,-0.9c0.1,-0.3 0.3,-0.6 0.7,-0.8c0.3,0.1 0.6,0 0.8,-0.2c0.3,-0.3 0.6,-0.3 0.9,0z" class="st116"/>
  <path id="svg_195" d="m64.7,62c0,-0.7 0.1,-1.4 0.7,-2c0.2,0.8 0.6,1.7 -0.7,2z" class="st117"/>
  <path id="svg_196" d="m59.7,64c0,0.3 -0.1,0.5 0,0.8c-0.3,0.1 -0.6,0.1 -1,0.2c0,-0.3 0.1,-0.5 0.1,-0.8l-0.1,-0.3c0.3,-0.2 0.6,-0.2 1,0.1z" class="st84"/>
  <path id="svg_197" d="m47.6,47.1c1.7,1.6 2.8,3.4 0.9,5.6c-0.4,-0.1 -0.7,-0.3 -1.1,-0.5c-0.3,-0.3 -0.5,-0.6 -0.6,-1c-0.2,-0.8 -0.4,-1.5 -0.5,-2.3c0,-0.9 0.6,-1.4 1.3,-1.8z" class="st118"/>
  <path id="svg_198" d="m47.6,47.1c-0.3,0.6 -0.6,1.3 -0.9,1.9c0,0 0,0.5 0,0.5c0,0.5 -0.1,1 -0.1,1.5c0,0.3 -0.1,0.7 -0.2,1c-0.2,0.3 -0.4,0.6 -0.7,0.8l-0.4,0.1l-0.4,0c-0.1,-0.9 -0.3,-1.8 -0.4,-2.7c0,-0.4 0.1,-0.8 0.1,-1.3c0.1,-0.3 0.1,-0.6 0.1,-1l0,-0.1c0.4,-0.2 0.7,-0.6 0.9,-0.9c0.7,0.1 1.3,0.2 2,0.2z" class="st119"/>
  <path id="svg_199" d="m45.7,52.8c0,-0.3 0,-0.6 0,-0.8c0.7,-0.6 1.4,-0.6 2,0.1c0.3,0.2 0.6,0.5 0.9,0.7c-1,0.4 -1.9,0.3 -2.9,0z" class="st120"/>
  <path id="svg_200" d="m45.6,47c-0.3,0.3 -0.6,0.6 -0.9,0.9c0.2,-0.3 0.5,-0.6 0.9,-0.9z" class="st104"/>
  <path id="svg_201" d="m55.9,60.3c-0.1,-2.1 -0.9,-4.3 0.6,-6.3c0,1.9 0.1,3.9 0.1,5.8c-0.1,0.3 -0.4,0.5 -0.7,0.5z" class="st99"/>
  <path id="svg_202" d="m55.9,60.3c0.2,-0.2 0.5,-0.3 0.7,-0.5c0.3,1.4 -0.5,3.2 1.2,4.2c-0.5,0.7 -1.3,0.9 -2.1,1c0,-0.4 -0.1,-0.7 -0.1,-1.1c0,-1.2 0.1,-2.4 0.3,-3.6z" class="st87"/>
  <path stroke="null" id="svg_203" d="m68.7,53.7c1,0 2,0 2.9,0c-1,1.1 -1.9,1.1 -2.9,0z" class="st87"/>
  <path id="svg_204" d="m56.8,51.2c0.3,-0.1 0.5,-0.3 0.8,-0.4c0.1,0.8 0.1,1.6 -0.7,2.2c-0.1,-0.6 -0.1,-1.2 -0.1,-1.8z" class="st87"/>
  <path id="svg_205" d="m61.7,58c0.2,0.3 0.4,0.6 0.6,0.9c-0.2,-0.3 -0.4,-0.6 -0.6,-0.9z" class="st87"/>
  <path id="svg_206" d="m65.6,52.2c0.4,0.3 0.8,0.5 1.2,0.8c-0.4,-0.3 -0.8,-0.6 -1.2,-0.8z" class="st87"/>
  <path id="svg_207" d="m61.6,62.9l-0.5,0c0,0 -0.5,-0.1 -0.5,-0.1c0.4,-0.3 0.8,-0.5 1.2,-0.8c-0.1,0.3 -0.1,0.6 -0.2,0.9z" class="st87"/>
  <path id="svg_208" d="m59.7,64c-0.3,0 -0.7,-0.1 -1,-0.1c0.4,-0.3 0.8,-0.5 1.3,-0.8c-0.2,0.3 -0.3,0.6 -0.3,0.9z" class="st87"/>
  <path id="svg_209" d="m62.6,70.8c-0.3,0.1 -0.6,0.2 -0.9,0.3c0,-0.3 0.1,-0.7 0.1,-1c0.3,0.3 0.6,0.5 0.8,0.7z" class="st121"/>
  <path id="svg_210" d="m47.7,52c-0.7,0 -1.4,0 -2,-0.1c0.1,-0.4 0.1,-0.8 0.2,-1.2c0.3,-0.2 0.6,-0.3 0.9,-0.4c0.3,0.1 0.6,0.3 0.9,0.5c0,0.5 0,0.9 0,1.2z" class="st122"/>
  <path id="svg_211" d="m47.6,51l-0.5,0.2l-0.4,-0.2c-0.7,-0.6 -0.8,-1.2 0.1,-1.7l-0.1,-0.2c1,0.3 0.9,1.1 0.9,1.9z" class="st123"/>
 </g>
</svg>